%TF.GenerationSoftware,KiCad,Pcbnew,8.0.1*%
%TF.CreationDate,2024-08-04T19:12:34+01:00*%
%TF.ProjectId,hexpansion,68657870-616e-4736-996f-6e2e6b696361,rev?*%
%TF.SameCoordinates,Original*%
%TF.FileFunction,Legend,Top*%
%TF.FilePolarity,Positive*%
%FSLAX46Y46*%
G04 Gerber Fmt 4.6, Leading zero omitted, Abs format (unit mm)*
G04 Created by KiCad (PCBNEW 8.0.1) date 2024-08-04 19:12:34*
%MOMM*%
%LPD*%
G01*
G04 APERTURE LIST*
%ADD10C,2.000000*%
%ADD11C,0.150000*%
%ADD12C,0.250000*%
%ADD13C,0.100000*%
%ADD14C,0.375000*%
%ADD15C,0.200000*%
%ADD16C,0.120000*%
%ADD17C,0.350000*%
G04 APERTURE END LIST*
D10*
X115316000Y-81788000D02*
X134316005Y-81788000D01*
X135316005Y-117161050D02*
G75*
G02*
X134316005Y-118161050I-1000037J37D01*
G01*
X135316005Y-82788000D02*
X135316005Y-117161050D01*
X134316005Y-118161050D02*
X115316000Y-118161050D01*
X134316005Y-81788000D02*
G75*
G02*
X135316004Y-82788000I20J-999979D01*
G01*
D11*
X118395905Y-90894819D02*
X119014952Y-90894819D01*
X119014952Y-90894819D02*
X118681619Y-91275771D01*
X118681619Y-91275771D02*
X118824476Y-91275771D01*
X118824476Y-91275771D02*
X118919714Y-91323390D01*
X118919714Y-91323390D02*
X118967333Y-91371009D01*
X118967333Y-91371009D02*
X119014952Y-91466247D01*
X119014952Y-91466247D02*
X119014952Y-91704342D01*
X119014952Y-91704342D02*
X118967333Y-91799580D01*
X118967333Y-91799580D02*
X118919714Y-91847200D01*
X118919714Y-91847200D02*
X118824476Y-91894819D01*
X118824476Y-91894819D02*
X118538762Y-91894819D01*
X118538762Y-91894819D02*
X118443524Y-91847200D01*
X118443524Y-91847200D02*
X118395905Y-91799580D01*
X119300667Y-90894819D02*
X119634000Y-91894819D01*
X119634000Y-91894819D02*
X119967333Y-90894819D01*
X120205429Y-90894819D02*
X120824476Y-90894819D01*
X120824476Y-90894819D02*
X120491143Y-91275771D01*
X120491143Y-91275771D02*
X120634000Y-91275771D01*
X120634000Y-91275771D02*
X120729238Y-91323390D01*
X120729238Y-91323390D02*
X120776857Y-91371009D01*
X120776857Y-91371009D02*
X120824476Y-91466247D01*
X120824476Y-91466247D02*
X120824476Y-91704342D01*
X120824476Y-91704342D02*
X120776857Y-91799580D01*
X120776857Y-91799580D02*
X120729238Y-91847200D01*
X120729238Y-91847200D02*
X120634000Y-91894819D01*
X120634000Y-91894819D02*
X120348286Y-91894819D01*
X120348286Y-91894819D02*
X120253048Y-91847200D01*
X120253048Y-91847200D02*
X120205429Y-91799580D01*
X119046857Y-104721819D02*
X119046857Y-103721819D01*
X119046857Y-104198009D02*
X119618285Y-104198009D01*
X119618285Y-104721819D02*
X119618285Y-103721819D01*
X120046857Y-104674200D02*
X120189714Y-104721819D01*
X120189714Y-104721819D02*
X120427809Y-104721819D01*
X120427809Y-104721819D02*
X120523047Y-104674200D01*
X120523047Y-104674200D02*
X120570666Y-104626580D01*
X120570666Y-104626580D02*
X120618285Y-104531342D01*
X120618285Y-104531342D02*
X120618285Y-104436104D01*
X120618285Y-104436104D02*
X120570666Y-104340866D01*
X120570666Y-104340866D02*
X120523047Y-104293247D01*
X120523047Y-104293247D02*
X120427809Y-104245628D01*
X120427809Y-104245628D02*
X120237333Y-104198009D01*
X120237333Y-104198009D02*
X120142095Y-104150390D01*
X120142095Y-104150390D02*
X120094476Y-104102771D01*
X120094476Y-104102771D02*
X120046857Y-104007533D01*
X120046857Y-104007533D02*
X120046857Y-103912295D01*
X120046857Y-103912295D02*
X120094476Y-103817057D01*
X120094476Y-103817057D02*
X120142095Y-103769438D01*
X120142095Y-103769438D02*
X120237333Y-103721819D01*
X120237333Y-103721819D02*
X120475428Y-103721819D01*
X120475428Y-103721819D02*
X120618285Y-103769438D01*
X120808762Y-104817057D02*
X121570666Y-104817057D01*
X121808762Y-104721819D02*
X121808762Y-103721819D01*
X122808761Y-104721819D02*
X122237333Y-104721819D01*
X122523047Y-104721819D02*
X122523047Y-103721819D01*
X122523047Y-103721819D02*
X122427809Y-103864676D01*
X122427809Y-103864676D02*
X122332571Y-103959914D01*
X122332571Y-103959914D02*
X122237333Y-104007533D01*
D12*
G36*
X103706378Y-99891473D02*
G01*
X103762565Y-99945988D01*
X103789921Y-99998278D01*
X103791391Y-100129751D01*
X103767304Y-100180219D01*
X103710169Y-100239105D01*
X103573476Y-100274863D01*
X103271346Y-100276892D01*
X103122858Y-100241482D01*
X103066673Y-100186969D01*
X103039316Y-100134677D01*
X103037846Y-100003203D01*
X103061934Y-99952735D01*
X103119066Y-99893851D01*
X103255760Y-99858092D01*
X103557890Y-99856063D01*
X103706378Y-99891473D01*
G37*
G36*
X103266982Y-98880710D02*
G01*
X103287147Y-98899847D01*
X103313586Y-98950384D01*
X103314953Y-99180979D01*
X103038890Y-99181626D01*
X103037554Y-98956197D01*
X103062184Y-98904590D01*
X103081321Y-98884425D01*
X103132302Y-98857754D01*
X103216352Y-98856547D01*
X103266982Y-98880710D01*
G37*
G36*
X104164619Y-102840103D02*
G01*
X102617185Y-102840103D01*
X102617185Y-102406616D01*
X102742185Y-102406616D01*
X102746579Y-102423767D01*
X102749083Y-102441292D01*
X102752584Y-102447205D01*
X102754290Y-102453862D01*
X102767000Y-102474812D01*
X102926410Y-102683356D01*
X102968377Y-102708205D01*
X103016661Y-102715103D01*
X103063907Y-102702998D01*
X103102925Y-102673735D01*
X103127774Y-102631768D01*
X103134672Y-102583484D01*
X103122567Y-102536238D01*
X103109857Y-102515288D01*
X103021892Y-102400210D01*
X103122567Y-102263386D01*
X103134672Y-102216140D01*
X103127774Y-102167856D01*
X103102925Y-102125889D01*
X103063907Y-102096626D01*
X103016661Y-102084521D01*
X102968377Y-102091419D01*
X102926410Y-102116268D01*
X102909857Y-102134336D01*
X102778368Y-102313037D01*
X102773932Y-102316365D01*
X102765738Y-102330202D01*
X102754290Y-102345762D01*
X102752584Y-102352418D01*
X102749083Y-102358332D01*
X102746579Y-102375856D01*
X102742185Y-102393008D01*
X102743157Y-102399812D01*
X102742185Y-102406616D01*
X102617185Y-102406616D01*
X102617185Y-100685526D01*
X102789619Y-100685526D01*
X102792021Y-101281340D01*
X102810685Y-101326400D01*
X102845173Y-101360888D01*
X102890233Y-101379552D01*
X102939005Y-101379552D01*
X102984065Y-101360888D01*
X103018553Y-101326400D01*
X103037217Y-101281340D01*
X103039619Y-101256954D01*
X103038969Y-101095948D01*
X103939005Y-101093838D01*
X103984065Y-101075174D01*
X104018553Y-101040686D01*
X104037217Y-100995626D01*
X104037217Y-100946854D01*
X104018553Y-100901794D01*
X103984065Y-100867306D01*
X103939005Y-100848642D01*
X103914619Y-100846240D01*
X103037971Y-100848295D01*
X103037217Y-100661140D01*
X103018553Y-100616080D01*
X102984065Y-100581592D01*
X102939005Y-100562928D01*
X102890233Y-100562928D01*
X102845173Y-100581592D01*
X102810685Y-100616080D01*
X102792021Y-100661140D01*
X102789619Y-100685526D01*
X102617185Y-100685526D01*
X102617185Y-99971240D01*
X102789619Y-99971240D01*
X102791542Y-100143256D01*
X102790600Y-100146082D01*
X102791755Y-100162335D01*
X102792021Y-100186102D01*
X102793739Y-100190250D01*
X102794058Y-100194732D01*
X102802816Y-100217618D01*
X102852901Y-100313354D01*
X102858305Y-100326400D01*
X102862224Y-100331176D01*
X102863489Y-100333593D01*
X102865983Y-100335756D01*
X102873850Y-100345342D01*
X102961305Y-100430195D01*
X102964896Y-100436180D01*
X102975800Y-100444259D01*
X102988030Y-100456125D01*
X102996615Y-100459681D01*
X103004084Y-100465215D01*
X103027159Y-100473460D01*
X103211547Y-100517430D01*
X103223566Y-100522409D01*
X103238655Y-100523895D01*
X103241875Y-100524663D01*
X103243697Y-100524391D01*
X103247952Y-100524811D01*
X103573657Y-100522623D01*
X103587361Y-100524663D01*
X103602460Y-100522430D01*
X103605671Y-100522409D01*
X103607372Y-100521704D01*
X103611602Y-100521079D01*
X103788551Y-100474790D01*
X103796147Y-100474790D01*
X103809168Y-100469396D01*
X103825153Y-100465215D01*
X103832619Y-100459682D01*
X103841207Y-100456126D01*
X103860149Y-100440581D01*
X103954428Y-100343411D01*
X103965749Y-100333593D01*
X103969063Y-100328327D01*
X103970933Y-100326401D01*
X103972196Y-100323350D01*
X103978803Y-100312856D01*
X104017099Y-100232615D01*
X104018553Y-100231162D01*
X104023544Y-100219112D01*
X104035180Y-100194732D01*
X104035498Y-100190251D01*
X104037217Y-100186102D01*
X104039619Y-100161716D01*
X104037695Y-99989696D01*
X104038637Y-99986873D01*
X104037482Y-99970630D01*
X104037217Y-99946854D01*
X104035498Y-99942704D01*
X104035180Y-99938224D01*
X104026422Y-99915338D01*
X103976338Y-99819604D01*
X103970933Y-99806555D01*
X103967011Y-99801777D01*
X103965749Y-99799363D01*
X103963257Y-99797201D01*
X103955388Y-99787613D01*
X103867930Y-99702757D01*
X103864341Y-99696776D01*
X103853441Y-99688700D01*
X103841207Y-99676830D01*
X103832619Y-99673273D01*
X103825153Y-99667741D01*
X103802078Y-99659496D01*
X103617690Y-99615525D01*
X103605671Y-99610547D01*
X103590579Y-99609060D01*
X103587361Y-99608293D01*
X103585539Y-99608564D01*
X103581285Y-99608145D01*
X103255579Y-99610332D01*
X103241875Y-99608293D01*
X103226776Y-99610525D01*
X103223566Y-99610547D01*
X103221864Y-99611251D01*
X103217635Y-99611877D01*
X103040686Y-99658166D01*
X103033089Y-99658166D01*
X103020068Y-99663559D01*
X103004084Y-99667741D01*
X102996615Y-99673274D01*
X102988030Y-99676831D01*
X102969088Y-99692376D01*
X102874814Y-99789540D01*
X102863489Y-99799363D01*
X102860172Y-99804631D01*
X102858305Y-99806556D01*
X102857043Y-99809602D01*
X102850434Y-99820101D01*
X102812138Y-99900340D01*
X102810685Y-99901794D01*
X102805694Y-99913842D01*
X102794058Y-99938224D01*
X102793739Y-99942705D01*
X102792021Y-99946854D01*
X102789619Y-99971240D01*
X102617185Y-99971240D01*
X102617185Y-98923621D01*
X102789619Y-98923621D01*
X102792021Y-99328959D01*
X102810685Y-99374019D01*
X102845173Y-99408507D01*
X102890233Y-99427171D01*
X102914619Y-99429573D01*
X103939005Y-99427171D01*
X103984065Y-99408507D01*
X104018553Y-99374019D01*
X104037217Y-99328959D01*
X104037217Y-99280187D01*
X104018553Y-99235127D01*
X103984065Y-99200639D01*
X103939005Y-99181975D01*
X103914619Y-99179573D01*
X103562692Y-99180398D01*
X103561283Y-98942740D01*
X103562446Y-98939254D01*
X103561155Y-98921093D01*
X103561026Y-98899235D01*
X103559307Y-98895085D01*
X103558989Y-98890605D01*
X103550231Y-98867719D01*
X103500147Y-98771985D01*
X103494742Y-98758936D01*
X103490820Y-98754158D01*
X103489558Y-98751744D01*
X103487066Y-98749582D01*
X103479197Y-98739994D01*
X103427875Y-98691292D01*
X103419829Y-98682015D01*
X103414689Y-98678779D01*
X103412636Y-98676831D01*
X103409589Y-98675569D01*
X103399091Y-98668960D01*
X103318851Y-98630664D01*
X103317398Y-98629211D01*
X103305349Y-98624220D01*
X103280968Y-98612584D01*
X103276486Y-98612265D01*
X103272338Y-98610547D01*
X103247952Y-98608145D01*
X103123159Y-98609937D01*
X103120728Y-98609127D01*
X103105820Y-98610186D01*
X103080709Y-98610547D01*
X103076559Y-98612265D01*
X103072079Y-98612584D01*
X103049193Y-98621342D01*
X102953459Y-98671425D01*
X102940410Y-98676831D01*
X102935632Y-98680752D01*
X102933218Y-98682015D01*
X102931056Y-98684506D01*
X102921468Y-98692376D01*
X102872766Y-98743697D01*
X102863489Y-98751744D01*
X102860253Y-98756883D01*
X102858305Y-98758937D01*
X102857043Y-98761983D01*
X102850434Y-98772482D01*
X102812138Y-98852721D01*
X102810685Y-98854175D01*
X102805694Y-98866223D01*
X102794058Y-98890605D01*
X102793739Y-98895086D01*
X102792021Y-98899235D01*
X102789619Y-98923621D01*
X102617185Y-98923621D01*
X102617185Y-97501853D01*
X102742185Y-97501853D01*
X102746579Y-97519004D01*
X102749083Y-97536529D01*
X102752584Y-97542442D01*
X102754290Y-97549099D01*
X102767000Y-97570049D01*
X102926410Y-97778593D01*
X102968377Y-97803442D01*
X103016661Y-97810340D01*
X103063907Y-97798235D01*
X103102925Y-97768972D01*
X103127774Y-97727005D01*
X103134672Y-97678721D01*
X103122567Y-97631475D01*
X103109857Y-97610525D01*
X103021892Y-97495447D01*
X103122567Y-97358623D01*
X103134672Y-97311377D01*
X103127774Y-97263093D01*
X103102925Y-97221126D01*
X103063907Y-97191863D01*
X103016661Y-97179758D01*
X102968377Y-97186656D01*
X102926410Y-97211505D01*
X102909857Y-97229573D01*
X102778368Y-97408274D01*
X102773932Y-97411602D01*
X102765738Y-97425439D01*
X102754290Y-97440999D01*
X102752584Y-97447655D01*
X102749083Y-97453569D01*
X102746579Y-97471093D01*
X102742185Y-97488245D01*
X102743157Y-97495049D01*
X102742185Y-97501853D01*
X102617185Y-97501853D01*
X102617185Y-97054758D01*
X104164619Y-97054758D01*
X104164619Y-102840103D01*
G37*
D11*
X119491381Y-100911819D02*
X119491381Y-99911819D01*
X119491381Y-100388009D02*
X120062809Y-100388009D01*
X120062809Y-100911819D02*
X120062809Y-99911819D01*
X120491381Y-100864200D02*
X120634238Y-100911819D01*
X120634238Y-100911819D02*
X120872333Y-100911819D01*
X120872333Y-100911819D02*
X120967571Y-100864200D01*
X120967571Y-100864200D02*
X121015190Y-100816580D01*
X121015190Y-100816580D02*
X121062809Y-100721342D01*
X121062809Y-100721342D02*
X121062809Y-100626104D01*
X121062809Y-100626104D02*
X121015190Y-100530866D01*
X121015190Y-100530866D02*
X120967571Y-100483247D01*
X120967571Y-100483247D02*
X120872333Y-100435628D01*
X120872333Y-100435628D02*
X120681857Y-100388009D01*
X120681857Y-100388009D02*
X120586619Y-100340390D01*
X120586619Y-100340390D02*
X120539000Y-100292771D01*
X120539000Y-100292771D02*
X120491381Y-100197533D01*
X120491381Y-100197533D02*
X120491381Y-100102295D01*
X120491381Y-100102295D02*
X120539000Y-100007057D01*
X120539000Y-100007057D02*
X120586619Y-99959438D01*
X120586619Y-99959438D02*
X120681857Y-99911819D01*
X120681857Y-99911819D02*
X120919952Y-99911819D01*
X120919952Y-99911819D02*
X121062809Y-99959438D01*
X121253286Y-101007057D02*
X122015190Y-101007057D01*
X122586619Y-100388009D02*
X122253286Y-100388009D01*
X122253286Y-100911819D02*
X122253286Y-99911819D01*
X122253286Y-99911819D02*
X122729476Y-99911819D01*
X123634238Y-100911819D02*
X123062810Y-100911819D01*
X123348524Y-100911819D02*
X123348524Y-99911819D01*
X123348524Y-99911819D02*
X123253286Y-100054676D01*
X123253286Y-100054676D02*
X123158048Y-100149914D01*
X123158048Y-100149914D02*
X123062810Y-100197533D01*
D13*
X131087905Y-96526419D02*
X131087905Y-95526419D01*
X131087905Y-95526419D02*
X131326000Y-95526419D01*
X131326000Y-95526419D02*
X131468857Y-95574038D01*
X131468857Y-95574038D02*
X131564095Y-95669276D01*
X131564095Y-95669276D02*
X131611714Y-95764514D01*
X131611714Y-95764514D02*
X131659333Y-95954990D01*
X131659333Y-95954990D02*
X131659333Y-96097847D01*
X131659333Y-96097847D02*
X131611714Y-96288323D01*
X131611714Y-96288323D02*
X131564095Y-96383561D01*
X131564095Y-96383561D02*
X131468857Y-96478800D01*
X131468857Y-96478800D02*
X131326000Y-96526419D01*
X131326000Y-96526419D02*
X131087905Y-96526419D01*
X132611714Y-96526419D02*
X132040286Y-96526419D01*
X132326000Y-96526419D02*
X132326000Y-95526419D01*
X132326000Y-95526419D02*
X132230762Y-95669276D01*
X132230762Y-95669276D02*
X132135524Y-95764514D01*
X132135524Y-95764514D02*
X132040286Y-95812133D01*
D11*
X120015190Y-95069819D02*
X119539000Y-95069819D01*
X119539000Y-95069819D02*
X119539000Y-94069819D01*
X120300905Y-95022200D02*
X120443762Y-95069819D01*
X120443762Y-95069819D02*
X120681857Y-95069819D01*
X120681857Y-95069819D02*
X120777095Y-95022200D01*
X120777095Y-95022200D02*
X120824714Y-94974580D01*
X120824714Y-94974580D02*
X120872333Y-94879342D01*
X120872333Y-94879342D02*
X120872333Y-94784104D01*
X120872333Y-94784104D02*
X120824714Y-94688866D01*
X120824714Y-94688866D02*
X120777095Y-94641247D01*
X120777095Y-94641247D02*
X120681857Y-94593628D01*
X120681857Y-94593628D02*
X120491381Y-94546009D01*
X120491381Y-94546009D02*
X120396143Y-94498390D01*
X120396143Y-94498390D02*
X120348524Y-94450771D01*
X120348524Y-94450771D02*
X120300905Y-94355533D01*
X120300905Y-94355533D02*
X120300905Y-94260295D01*
X120300905Y-94260295D02*
X120348524Y-94165057D01*
X120348524Y-94165057D02*
X120396143Y-94117438D01*
X120396143Y-94117438D02*
X120491381Y-94069819D01*
X120491381Y-94069819D02*
X120729476Y-94069819D01*
X120729476Y-94069819D02*
X120872333Y-94117438D01*
X121062810Y-95165057D02*
X121824714Y-95165057D01*
X122396143Y-94546009D02*
X122539000Y-94593628D01*
X122539000Y-94593628D02*
X122586619Y-94641247D01*
X122586619Y-94641247D02*
X122634238Y-94736485D01*
X122634238Y-94736485D02*
X122634238Y-94879342D01*
X122634238Y-94879342D02*
X122586619Y-94974580D01*
X122586619Y-94974580D02*
X122539000Y-95022200D01*
X122539000Y-95022200D02*
X122443762Y-95069819D01*
X122443762Y-95069819D02*
X122062810Y-95069819D01*
X122062810Y-95069819D02*
X122062810Y-94069819D01*
X122062810Y-94069819D02*
X122396143Y-94069819D01*
X122396143Y-94069819D02*
X122491381Y-94117438D01*
X122491381Y-94117438D02*
X122539000Y-94165057D01*
X122539000Y-94165057D02*
X122586619Y-94260295D01*
X122586619Y-94260295D02*
X122586619Y-94355533D01*
X122586619Y-94355533D02*
X122539000Y-94450771D01*
X122539000Y-94450771D02*
X122491381Y-94498390D01*
X122491381Y-94498390D02*
X122396143Y-94546009D01*
X122396143Y-94546009D02*
X122062810Y-94546009D01*
X123586619Y-95069819D02*
X123015191Y-95069819D01*
X123300905Y-95069819D02*
X123300905Y-94069819D01*
X123300905Y-94069819D02*
X123205667Y-94212676D01*
X123205667Y-94212676D02*
X123110429Y-94307914D01*
X123110429Y-94307914D02*
X123015191Y-94355533D01*
X120015190Y-97609819D02*
X119539000Y-97609819D01*
X119539000Y-97609819D02*
X119539000Y-96609819D01*
X120300905Y-97562200D02*
X120443762Y-97609819D01*
X120443762Y-97609819D02*
X120681857Y-97609819D01*
X120681857Y-97609819D02*
X120777095Y-97562200D01*
X120777095Y-97562200D02*
X120824714Y-97514580D01*
X120824714Y-97514580D02*
X120872333Y-97419342D01*
X120872333Y-97419342D02*
X120872333Y-97324104D01*
X120872333Y-97324104D02*
X120824714Y-97228866D01*
X120824714Y-97228866D02*
X120777095Y-97181247D01*
X120777095Y-97181247D02*
X120681857Y-97133628D01*
X120681857Y-97133628D02*
X120491381Y-97086009D01*
X120491381Y-97086009D02*
X120396143Y-97038390D01*
X120396143Y-97038390D02*
X120348524Y-96990771D01*
X120348524Y-96990771D02*
X120300905Y-96895533D01*
X120300905Y-96895533D02*
X120300905Y-96800295D01*
X120300905Y-96800295D02*
X120348524Y-96705057D01*
X120348524Y-96705057D02*
X120396143Y-96657438D01*
X120396143Y-96657438D02*
X120491381Y-96609819D01*
X120491381Y-96609819D02*
X120729476Y-96609819D01*
X120729476Y-96609819D02*
X120872333Y-96657438D01*
X121062810Y-97705057D02*
X121824714Y-97705057D01*
X122062810Y-97609819D02*
X122062810Y-96609819D01*
X122062810Y-96609819D02*
X122300905Y-96609819D01*
X122300905Y-96609819D02*
X122443762Y-96657438D01*
X122443762Y-96657438D02*
X122539000Y-96752676D01*
X122539000Y-96752676D02*
X122586619Y-96847914D01*
X122586619Y-96847914D02*
X122634238Y-97038390D01*
X122634238Y-97038390D02*
X122634238Y-97181247D01*
X122634238Y-97181247D02*
X122586619Y-97371723D01*
X122586619Y-97371723D02*
X122539000Y-97466961D01*
X122539000Y-97466961D02*
X122443762Y-97562200D01*
X122443762Y-97562200D02*
X122300905Y-97609819D01*
X122300905Y-97609819D02*
X122062810Y-97609819D01*
X123586619Y-97609819D02*
X123015191Y-97609819D01*
X123300905Y-97609819D02*
X123300905Y-96609819D01*
X123300905Y-96609819D02*
X123205667Y-96752676D01*
X123205667Y-96752676D02*
X123110429Y-96847914D01*
X123110429Y-96847914D02*
X123015191Y-96895533D01*
X128726828Y-89469999D02*
X127726828Y-89469999D01*
X127726828Y-89469999D02*
X127726828Y-89231904D01*
X127726828Y-89231904D02*
X127774447Y-89089047D01*
X127774447Y-89089047D02*
X127869685Y-88993809D01*
X127869685Y-88993809D02*
X127964923Y-88946190D01*
X127964923Y-88946190D02*
X128155399Y-88898571D01*
X128155399Y-88898571D02*
X128298256Y-88898571D01*
X128298256Y-88898571D02*
X128488732Y-88946190D01*
X128488732Y-88946190D02*
X128583970Y-88993809D01*
X128583970Y-88993809D02*
X128679209Y-89089047D01*
X128679209Y-89089047D02*
X128726828Y-89231904D01*
X128726828Y-89231904D02*
X128726828Y-89469999D01*
X128726828Y-88469999D02*
X127726828Y-88469999D01*
X128726828Y-87993809D02*
X127726828Y-87993809D01*
X127726828Y-87993809D02*
X128726828Y-87422381D01*
X128726828Y-87422381D02*
X127726828Y-87422381D01*
X128726828Y-86422381D02*
X128726828Y-86993809D01*
X128726828Y-86708095D02*
X127726828Y-86708095D01*
X127726828Y-86708095D02*
X127869685Y-86803333D01*
X127869685Y-86803333D02*
X127964923Y-86898571D01*
X127964923Y-86898571D02*
X128012542Y-86993809D01*
X118903904Y-106182438D02*
X118808666Y-106134819D01*
X118808666Y-106134819D02*
X118665809Y-106134819D01*
X118665809Y-106134819D02*
X118522952Y-106182438D01*
X118522952Y-106182438D02*
X118427714Y-106277676D01*
X118427714Y-106277676D02*
X118380095Y-106372914D01*
X118380095Y-106372914D02*
X118332476Y-106563390D01*
X118332476Y-106563390D02*
X118332476Y-106706247D01*
X118332476Y-106706247D02*
X118380095Y-106896723D01*
X118380095Y-106896723D02*
X118427714Y-106991961D01*
X118427714Y-106991961D02*
X118522952Y-107087200D01*
X118522952Y-107087200D02*
X118665809Y-107134819D01*
X118665809Y-107134819D02*
X118761047Y-107134819D01*
X118761047Y-107134819D02*
X118903904Y-107087200D01*
X118903904Y-107087200D02*
X118951523Y-107039580D01*
X118951523Y-107039580D02*
X118951523Y-106706247D01*
X118951523Y-106706247D02*
X118761047Y-106706247D01*
X119380095Y-107134819D02*
X119380095Y-106134819D01*
X119380095Y-106134819D02*
X119951523Y-107134819D01*
X119951523Y-107134819D02*
X119951523Y-106134819D01*
X120427714Y-107134819D02*
X120427714Y-106134819D01*
X120427714Y-106134819D02*
X120665809Y-106134819D01*
X120665809Y-106134819D02*
X120808666Y-106182438D01*
X120808666Y-106182438D02*
X120903904Y-106277676D01*
X120903904Y-106277676D02*
X120951523Y-106372914D01*
X120951523Y-106372914D02*
X120999142Y-106563390D01*
X120999142Y-106563390D02*
X120999142Y-106706247D01*
X120999142Y-106706247D02*
X120951523Y-106896723D01*
X120951523Y-106896723D02*
X120903904Y-106991961D01*
X120903904Y-106991961D02*
X120808666Y-107087200D01*
X120808666Y-107087200D02*
X120665809Y-107134819D01*
X120665809Y-107134819D02*
X120427714Y-107134819D01*
X121380095Y-106230057D02*
X121427714Y-106182438D01*
X121427714Y-106182438D02*
X121522952Y-106134819D01*
X121522952Y-106134819D02*
X121761047Y-106134819D01*
X121761047Y-106134819D02*
X121856285Y-106182438D01*
X121856285Y-106182438D02*
X121903904Y-106230057D01*
X121903904Y-106230057D02*
X121951523Y-106325295D01*
X121951523Y-106325295D02*
X121951523Y-106420533D01*
X121951523Y-106420533D02*
X121903904Y-106563390D01*
X121903904Y-106563390D02*
X121332476Y-107134819D01*
X121332476Y-107134819D02*
X121951523Y-107134819D01*
X119396143Y-103451819D02*
X119396143Y-102451819D01*
X119396143Y-102928009D02*
X119967571Y-102928009D01*
X119967571Y-103451819D02*
X119967571Y-102451819D01*
X120396143Y-103404200D02*
X120539000Y-103451819D01*
X120539000Y-103451819D02*
X120777095Y-103451819D01*
X120777095Y-103451819D02*
X120872333Y-103404200D01*
X120872333Y-103404200D02*
X120919952Y-103356580D01*
X120919952Y-103356580D02*
X120967571Y-103261342D01*
X120967571Y-103261342D02*
X120967571Y-103166104D01*
X120967571Y-103166104D02*
X120919952Y-103070866D01*
X120919952Y-103070866D02*
X120872333Y-103023247D01*
X120872333Y-103023247D02*
X120777095Y-102975628D01*
X120777095Y-102975628D02*
X120586619Y-102928009D01*
X120586619Y-102928009D02*
X120491381Y-102880390D01*
X120491381Y-102880390D02*
X120443762Y-102832771D01*
X120443762Y-102832771D02*
X120396143Y-102737533D01*
X120396143Y-102737533D02*
X120396143Y-102642295D01*
X120396143Y-102642295D02*
X120443762Y-102547057D01*
X120443762Y-102547057D02*
X120491381Y-102499438D01*
X120491381Y-102499438D02*
X120586619Y-102451819D01*
X120586619Y-102451819D02*
X120824714Y-102451819D01*
X120824714Y-102451819D02*
X120967571Y-102499438D01*
X121158048Y-103547057D02*
X121919952Y-103547057D01*
X122158048Y-103451819D02*
X122158048Y-102451819D01*
X122158048Y-102928009D02*
X122729476Y-102928009D01*
X122729476Y-103451819D02*
X122729476Y-102451819D01*
X123729476Y-103451819D02*
X123158048Y-103451819D01*
X123443762Y-103451819D02*
X123443762Y-102451819D01*
X123443762Y-102451819D02*
X123348524Y-102594676D01*
X123348524Y-102594676D02*
X123253286Y-102689914D01*
X123253286Y-102689914D02*
X123158048Y-102737533D01*
D13*
X131087905Y-104851419D02*
X131087905Y-103851419D01*
X131087905Y-103851419D02*
X131326000Y-103851419D01*
X131326000Y-103851419D02*
X131468857Y-103899038D01*
X131468857Y-103899038D02*
X131564095Y-103994276D01*
X131564095Y-103994276D02*
X131611714Y-104089514D01*
X131611714Y-104089514D02*
X131659333Y-104279990D01*
X131659333Y-104279990D02*
X131659333Y-104422847D01*
X131659333Y-104422847D02*
X131611714Y-104613323D01*
X131611714Y-104613323D02*
X131564095Y-104708561D01*
X131564095Y-104708561D02*
X131468857Y-104803800D01*
X131468857Y-104803800D02*
X131326000Y-104851419D01*
X131326000Y-104851419D02*
X131087905Y-104851419D01*
X132516476Y-104184752D02*
X132516476Y-104851419D01*
X132278381Y-103803800D02*
X132040286Y-104518085D01*
X132040286Y-104518085D02*
X132659333Y-104518085D01*
D11*
X131206820Y-89659526D02*
X130206820Y-89659526D01*
X130206820Y-89659526D02*
X130206820Y-89278574D01*
X130206820Y-89278574D02*
X130254439Y-89183336D01*
X130254439Y-89183336D02*
X130302058Y-89135717D01*
X130302058Y-89135717D02*
X130397296Y-89088098D01*
X130397296Y-89088098D02*
X130540153Y-89088098D01*
X130540153Y-89088098D02*
X130635391Y-89135717D01*
X130635391Y-89135717D02*
X130683010Y-89183336D01*
X130683010Y-89183336D02*
X130730629Y-89278574D01*
X130730629Y-89278574D02*
X130730629Y-89659526D01*
X130206820Y-88754764D02*
X131206820Y-88516669D01*
X131206820Y-88516669D02*
X130492534Y-88326193D01*
X130492534Y-88326193D02*
X131206820Y-88135717D01*
X131206820Y-88135717D02*
X130206820Y-87897622D01*
X131206820Y-86945241D02*
X130730629Y-87278574D01*
X131206820Y-87516669D02*
X130206820Y-87516669D01*
X130206820Y-87516669D02*
X130206820Y-87135717D01*
X130206820Y-87135717D02*
X130254439Y-87040479D01*
X130254439Y-87040479D02*
X130302058Y-86992860D01*
X130302058Y-86992860D02*
X130397296Y-86945241D01*
X130397296Y-86945241D02*
X130540153Y-86945241D01*
X130540153Y-86945241D02*
X130635391Y-86992860D01*
X130635391Y-86992860D02*
X130683010Y-87040479D01*
X130683010Y-87040479D02*
X130730629Y-87135717D01*
X130730629Y-87135717D02*
X130730629Y-87516669D01*
X131206820Y-85992860D02*
X131206820Y-86564288D01*
X131206820Y-86278574D02*
X130206820Y-86278574D01*
X130206820Y-86278574D02*
X130349677Y-86373812D01*
X130349677Y-86373812D02*
X130444915Y-86469050D01*
X130444915Y-86469050D02*
X130492534Y-86564288D01*
X119451618Y-93799819D02*
X118975428Y-93799819D01*
X118975428Y-93799819D02*
X118975428Y-92799819D01*
X119737333Y-93752200D02*
X119880190Y-93799819D01*
X119880190Y-93799819D02*
X120118285Y-93799819D01*
X120118285Y-93799819D02*
X120213523Y-93752200D01*
X120213523Y-93752200D02*
X120261142Y-93704580D01*
X120261142Y-93704580D02*
X120308761Y-93609342D01*
X120308761Y-93609342D02*
X120308761Y-93514104D01*
X120308761Y-93514104D02*
X120261142Y-93418866D01*
X120261142Y-93418866D02*
X120213523Y-93371247D01*
X120213523Y-93371247D02*
X120118285Y-93323628D01*
X120118285Y-93323628D02*
X119927809Y-93276009D01*
X119927809Y-93276009D02*
X119832571Y-93228390D01*
X119832571Y-93228390D02*
X119784952Y-93180771D01*
X119784952Y-93180771D02*
X119737333Y-93085533D01*
X119737333Y-93085533D02*
X119737333Y-92990295D01*
X119737333Y-92990295D02*
X119784952Y-92895057D01*
X119784952Y-92895057D02*
X119832571Y-92847438D01*
X119832571Y-92847438D02*
X119927809Y-92799819D01*
X119927809Y-92799819D02*
X120165904Y-92799819D01*
X120165904Y-92799819D02*
X120308761Y-92847438D01*
X120499238Y-93895057D02*
X121261142Y-93895057D01*
X121451619Y-93514104D02*
X121927809Y-93514104D01*
X121356381Y-93799819D02*
X121689714Y-92799819D01*
X121689714Y-92799819D02*
X122023047Y-93799819D01*
X122880190Y-93799819D02*
X122308762Y-93799819D01*
X122594476Y-93799819D02*
X122594476Y-92799819D01*
X122594476Y-92799819D02*
X122499238Y-92942676D01*
X122499238Y-92942676D02*
X122404000Y-93037914D01*
X122404000Y-93037914D02*
X122308762Y-93085533D01*
X119380190Y-96339819D02*
X118904000Y-96339819D01*
X118904000Y-96339819D02*
X118904000Y-95339819D01*
X119665905Y-96292200D02*
X119808762Y-96339819D01*
X119808762Y-96339819D02*
X120046857Y-96339819D01*
X120046857Y-96339819D02*
X120142095Y-96292200D01*
X120142095Y-96292200D02*
X120189714Y-96244580D01*
X120189714Y-96244580D02*
X120237333Y-96149342D01*
X120237333Y-96149342D02*
X120237333Y-96054104D01*
X120237333Y-96054104D02*
X120189714Y-95958866D01*
X120189714Y-95958866D02*
X120142095Y-95911247D01*
X120142095Y-95911247D02*
X120046857Y-95863628D01*
X120046857Y-95863628D02*
X119856381Y-95816009D01*
X119856381Y-95816009D02*
X119761143Y-95768390D01*
X119761143Y-95768390D02*
X119713524Y-95720771D01*
X119713524Y-95720771D02*
X119665905Y-95625533D01*
X119665905Y-95625533D02*
X119665905Y-95530295D01*
X119665905Y-95530295D02*
X119713524Y-95435057D01*
X119713524Y-95435057D02*
X119761143Y-95387438D01*
X119761143Y-95387438D02*
X119856381Y-95339819D01*
X119856381Y-95339819D02*
X120094476Y-95339819D01*
X120094476Y-95339819D02*
X120237333Y-95387438D01*
X120427810Y-96435057D02*
X121189714Y-96435057D01*
X121999238Y-96244580D02*
X121951619Y-96292200D01*
X121951619Y-96292200D02*
X121808762Y-96339819D01*
X121808762Y-96339819D02*
X121713524Y-96339819D01*
X121713524Y-96339819D02*
X121570667Y-96292200D01*
X121570667Y-96292200D02*
X121475429Y-96196961D01*
X121475429Y-96196961D02*
X121427810Y-96101723D01*
X121427810Y-96101723D02*
X121380191Y-95911247D01*
X121380191Y-95911247D02*
X121380191Y-95768390D01*
X121380191Y-95768390D02*
X121427810Y-95577914D01*
X121427810Y-95577914D02*
X121475429Y-95482676D01*
X121475429Y-95482676D02*
X121570667Y-95387438D01*
X121570667Y-95387438D02*
X121713524Y-95339819D01*
X121713524Y-95339819D02*
X121808762Y-95339819D01*
X121808762Y-95339819D02*
X121951619Y-95387438D01*
X121951619Y-95387438D02*
X121999238Y-95435057D01*
X122951619Y-96339819D02*
X122380191Y-96339819D01*
X122665905Y-96339819D02*
X122665905Y-95339819D01*
X122665905Y-95339819D02*
X122570667Y-95482676D01*
X122570667Y-95482676D02*
X122475429Y-95577914D01*
X122475429Y-95577914D02*
X122380191Y-95625533D01*
X108950822Y-106243332D02*
X109665107Y-106243332D01*
X109665107Y-106243332D02*
X109807964Y-106290951D01*
X109807964Y-106290951D02*
X109903203Y-106386189D01*
X109903203Y-106386189D02*
X109950822Y-106529046D01*
X109950822Y-106529046D02*
X109950822Y-106624284D01*
X109950822Y-105767141D02*
X108950822Y-105767141D01*
X108950822Y-105767141D02*
X108950822Y-105386189D01*
X108950822Y-105386189D02*
X108998441Y-105290951D01*
X108998441Y-105290951D02*
X109046060Y-105243332D01*
X109046060Y-105243332D02*
X109141298Y-105195713D01*
X109141298Y-105195713D02*
X109284155Y-105195713D01*
X109284155Y-105195713D02*
X109379393Y-105243332D01*
X109379393Y-105243332D02*
X109427012Y-105290951D01*
X109427012Y-105290951D02*
X109474631Y-105386189D01*
X109474631Y-105386189D02*
X109474631Y-105767141D01*
X109950822Y-104243332D02*
X109950822Y-104814760D01*
X109950822Y-104529046D02*
X108950822Y-104529046D01*
X108950822Y-104529046D02*
X109093679Y-104624284D01*
X109093679Y-104624284D02*
X109188917Y-104719522D01*
X109188917Y-104719522D02*
X109236536Y-104814760D01*
D13*
X131087905Y-102076419D02*
X131087905Y-101076419D01*
X131087905Y-101076419D02*
X131326000Y-101076419D01*
X131326000Y-101076419D02*
X131468857Y-101124038D01*
X131468857Y-101124038D02*
X131564095Y-101219276D01*
X131564095Y-101219276D02*
X131611714Y-101314514D01*
X131611714Y-101314514D02*
X131659333Y-101504990D01*
X131659333Y-101504990D02*
X131659333Y-101647847D01*
X131659333Y-101647847D02*
X131611714Y-101838323D01*
X131611714Y-101838323D02*
X131564095Y-101933561D01*
X131564095Y-101933561D02*
X131468857Y-102028800D01*
X131468857Y-102028800D02*
X131326000Y-102076419D01*
X131326000Y-102076419D02*
X131087905Y-102076419D01*
X131992667Y-101076419D02*
X132611714Y-101076419D01*
X132611714Y-101076419D02*
X132278381Y-101457371D01*
X132278381Y-101457371D02*
X132421238Y-101457371D01*
X132421238Y-101457371D02*
X132516476Y-101504990D01*
X132516476Y-101504990D02*
X132564095Y-101552609D01*
X132564095Y-101552609D02*
X132611714Y-101647847D01*
X132611714Y-101647847D02*
X132611714Y-101885942D01*
X132611714Y-101885942D02*
X132564095Y-101981180D01*
X132564095Y-101981180D02*
X132516476Y-102028800D01*
X132516476Y-102028800D02*
X132421238Y-102076419D01*
X132421238Y-102076419D02*
X132135524Y-102076419D01*
X132135524Y-102076419D02*
X132040286Y-102028800D01*
X132040286Y-102028800D02*
X131992667Y-101981180D01*
D11*
X118784952Y-102181819D02*
X118784952Y-101181819D01*
X118784952Y-101658009D02*
X119356380Y-101658009D01*
X119356380Y-102181819D02*
X119356380Y-101181819D01*
X119784952Y-102134200D02*
X119927809Y-102181819D01*
X119927809Y-102181819D02*
X120165904Y-102181819D01*
X120165904Y-102181819D02*
X120261142Y-102134200D01*
X120261142Y-102134200D02*
X120308761Y-102086580D01*
X120308761Y-102086580D02*
X120356380Y-101991342D01*
X120356380Y-101991342D02*
X120356380Y-101896104D01*
X120356380Y-101896104D02*
X120308761Y-101800866D01*
X120308761Y-101800866D02*
X120261142Y-101753247D01*
X120261142Y-101753247D02*
X120165904Y-101705628D01*
X120165904Y-101705628D02*
X119975428Y-101658009D01*
X119975428Y-101658009D02*
X119880190Y-101610390D01*
X119880190Y-101610390D02*
X119832571Y-101562771D01*
X119832571Y-101562771D02*
X119784952Y-101467533D01*
X119784952Y-101467533D02*
X119784952Y-101372295D01*
X119784952Y-101372295D02*
X119832571Y-101277057D01*
X119832571Y-101277057D02*
X119880190Y-101229438D01*
X119880190Y-101229438D02*
X119975428Y-101181819D01*
X119975428Y-101181819D02*
X120213523Y-101181819D01*
X120213523Y-101181819D02*
X120356380Y-101229438D01*
X120546857Y-102277057D02*
X121308761Y-102277057D01*
X122070666Y-101229438D02*
X121975428Y-101181819D01*
X121975428Y-101181819D02*
X121832571Y-101181819D01*
X121832571Y-101181819D02*
X121689714Y-101229438D01*
X121689714Y-101229438D02*
X121594476Y-101324676D01*
X121594476Y-101324676D02*
X121546857Y-101419914D01*
X121546857Y-101419914D02*
X121499238Y-101610390D01*
X121499238Y-101610390D02*
X121499238Y-101753247D01*
X121499238Y-101753247D02*
X121546857Y-101943723D01*
X121546857Y-101943723D02*
X121594476Y-102038961D01*
X121594476Y-102038961D02*
X121689714Y-102134200D01*
X121689714Y-102134200D02*
X121832571Y-102181819D01*
X121832571Y-102181819D02*
X121927809Y-102181819D01*
X121927809Y-102181819D02*
X122070666Y-102134200D01*
X122070666Y-102134200D02*
X122118285Y-102086580D01*
X122118285Y-102086580D02*
X122118285Y-101753247D01*
X122118285Y-101753247D02*
X121927809Y-101753247D01*
X123070666Y-102181819D02*
X122499238Y-102181819D01*
X122784952Y-102181819D02*
X122784952Y-101181819D01*
X122784952Y-101181819D02*
X122689714Y-101324676D01*
X122689714Y-101324676D02*
X122594476Y-101419914D01*
X122594476Y-101419914D02*
X122499238Y-101467533D01*
X119427809Y-99133819D02*
X118951619Y-99133819D01*
X118951619Y-99133819D02*
X118951619Y-98133819D01*
X119713524Y-99086200D02*
X119856381Y-99133819D01*
X119856381Y-99133819D02*
X120094476Y-99133819D01*
X120094476Y-99133819D02*
X120189714Y-99086200D01*
X120189714Y-99086200D02*
X120237333Y-99038580D01*
X120237333Y-99038580D02*
X120284952Y-98943342D01*
X120284952Y-98943342D02*
X120284952Y-98848104D01*
X120284952Y-98848104D02*
X120237333Y-98752866D01*
X120237333Y-98752866D02*
X120189714Y-98705247D01*
X120189714Y-98705247D02*
X120094476Y-98657628D01*
X120094476Y-98657628D02*
X119904000Y-98610009D01*
X119904000Y-98610009D02*
X119808762Y-98562390D01*
X119808762Y-98562390D02*
X119761143Y-98514771D01*
X119761143Y-98514771D02*
X119713524Y-98419533D01*
X119713524Y-98419533D02*
X119713524Y-98324295D01*
X119713524Y-98324295D02*
X119761143Y-98229057D01*
X119761143Y-98229057D02*
X119808762Y-98181438D01*
X119808762Y-98181438D02*
X119904000Y-98133819D01*
X119904000Y-98133819D02*
X120142095Y-98133819D01*
X120142095Y-98133819D02*
X120284952Y-98181438D01*
X120475429Y-99229057D02*
X121237333Y-99229057D01*
X121475429Y-98610009D02*
X121808762Y-98610009D01*
X121951619Y-99133819D02*
X121475429Y-99133819D01*
X121475429Y-99133819D02*
X121475429Y-98133819D01*
X121475429Y-98133819D02*
X121951619Y-98133819D01*
X122904000Y-99133819D02*
X122332572Y-99133819D01*
X122618286Y-99133819D02*
X122618286Y-98133819D01*
X122618286Y-98133819D02*
X122523048Y-98276676D01*
X122523048Y-98276676D02*
X122427810Y-98371914D01*
X122427810Y-98371914D02*
X122332572Y-98419533D01*
X125214439Y-89278097D02*
X125166820Y-89373335D01*
X125166820Y-89373335D02*
X125166820Y-89516192D01*
X125166820Y-89516192D02*
X125214439Y-89659049D01*
X125214439Y-89659049D02*
X125309677Y-89754287D01*
X125309677Y-89754287D02*
X125404915Y-89801906D01*
X125404915Y-89801906D02*
X125595391Y-89849525D01*
X125595391Y-89849525D02*
X125738248Y-89849525D01*
X125738248Y-89849525D02*
X125928724Y-89801906D01*
X125928724Y-89801906D02*
X126023962Y-89754287D01*
X126023962Y-89754287D02*
X126119201Y-89659049D01*
X126119201Y-89659049D02*
X126166820Y-89516192D01*
X126166820Y-89516192D02*
X126166820Y-89420954D01*
X126166820Y-89420954D02*
X126119201Y-89278097D01*
X126119201Y-89278097D02*
X126071581Y-89230478D01*
X126071581Y-89230478D02*
X125738248Y-89230478D01*
X125738248Y-89230478D02*
X125738248Y-89420954D01*
X126166820Y-88801906D02*
X125166820Y-88801906D01*
X125166820Y-88801906D02*
X126166820Y-88230478D01*
X126166820Y-88230478D02*
X125166820Y-88230478D01*
X126166820Y-87754287D02*
X125166820Y-87754287D01*
X125166820Y-87754287D02*
X125166820Y-87516192D01*
X125166820Y-87516192D02*
X125214439Y-87373335D01*
X125214439Y-87373335D02*
X125309677Y-87278097D01*
X125309677Y-87278097D02*
X125404915Y-87230478D01*
X125404915Y-87230478D02*
X125595391Y-87182859D01*
X125595391Y-87182859D02*
X125738248Y-87182859D01*
X125738248Y-87182859D02*
X125928724Y-87230478D01*
X125928724Y-87230478D02*
X126023962Y-87278097D01*
X126023962Y-87278097D02*
X126119201Y-87373335D01*
X126119201Y-87373335D02*
X126166820Y-87516192D01*
X126166820Y-87516192D02*
X126166820Y-87754287D01*
X126166820Y-86230478D02*
X126166820Y-86801906D01*
X126166820Y-86516192D02*
X125166820Y-86516192D01*
X125166820Y-86516192D02*
X125309677Y-86611430D01*
X125309677Y-86611430D02*
X125404915Y-86706668D01*
X125404915Y-86706668D02*
X125452534Y-86801906D01*
D13*
X131087905Y-99301419D02*
X131087905Y-98301419D01*
X131087905Y-98301419D02*
X131326000Y-98301419D01*
X131326000Y-98301419D02*
X131468857Y-98349038D01*
X131468857Y-98349038D02*
X131564095Y-98444276D01*
X131564095Y-98444276D02*
X131611714Y-98539514D01*
X131611714Y-98539514D02*
X131659333Y-98729990D01*
X131659333Y-98729990D02*
X131659333Y-98872847D01*
X131659333Y-98872847D02*
X131611714Y-99063323D01*
X131611714Y-99063323D02*
X131564095Y-99158561D01*
X131564095Y-99158561D02*
X131468857Y-99253800D01*
X131468857Y-99253800D02*
X131326000Y-99301419D01*
X131326000Y-99301419D02*
X131087905Y-99301419D01*
X132040286Y-98396657D02*
X132087905Y-98349038D01*
X132087905Y-98349038D02*
X132183143Y-98301419D01*
X132183143Y-98301419D02*
X132421238Y-98301419D01*
X132421238Y-98301419D02*
X132516476Y-98349038D01*
X132516476Y-98349038D02*
X132564095Y-98396657D01*
X132564095Y-98396657D02*
X132611714Y-98491895D01*
X132611714Y-98491895D02*
X132611714Y-98587133D01*
X132611714Y-98587133D02*
X132564095Y-98729990D01*
X132564095Y-98729990D02*
X131992667Y-99301419D01*
X131992667Y-99301419D02*
X132611714Y-99301419D01*
D14*
%TO.C,REF\u002A\u002A*%
X116050000Y-111598000D02*
X116050000Y-110598000D01*
X117950000Y-114248000D02*
X116650000Y-112948000D01*
X120300000Y-114848000D02*
X119300000Y-114848000D01*
X120500000Y-110398000D02*
X119200000Y-111698000D01*
X116800000Y-109848000D02*
G75*
G02*
X115300000Y-109848000I-750000J0D01*
G01*
X115300000Y-109848000D02*
G75*
G02*
X116800000Y-109848000I750000J0D01*
G01*
X116800000Y-112348000D02*
G75*
G02*
X115300000Y-112348000I-750000J0D01*
G01*
X115300000Y-112348000D02*
G75*
G02*
X116800000Y-112348000I750000J0D01*
G01*
X116811263Y-114830667D02*
G75*
G02*
X115311263Y-114830667I-750000J0D01*
G01*
X115311263Y-114830667D02*
G75*
G02*
X116811263Y-114830667I750000J0D01*
G01*
X119300000Y-109848000D02*
G75*
G02*
X117800000Y-109848000I-750000J0D01*
G01*
X117800000Y-109848000D02*
G75*
G02*
X119300000Y-109848000I750000J0D01*
G01*
X119300000Y-112348000D02*
G75*
G02*
X117800000Y-112348000I-750000J0D01*
G01*
X117800000Y-112348000D02*
G75*
G02*
X119300000Y-112348000I750000J0D01*
G01*
X119300000Y-114848000D02*
G75*
G02*
X117800000Y-114848000I-750000J0D01*
G01*
X117800000Y-114848000D02*
G75*
G02*
X119300000Y-114848000I750000J0D01*
G01*
X121800000Y-109848000D02*
G75*
G02*
X120300000Y-109848000I-750000J0D01*
G01*
X120300000Y-109848000D02*
G75*
G02*
X121800000Y-109848000I750000J0D01*
G01*
X121800000Y-112348000D02*
G75*
G02*
X120300000Y-112348000I-750000J0D01*
G01*
X120300000Y-112348000D02*
G75*
G02*
X121800000Y-112348000I750000J0D01*
G01*
X121800000Y-114848000D02*
G75*
G02*
X120300000Y-114848000I-750000J0D01*
G01*
X120300000Y-114848000D02*
G75*
G02*
X121800000Y-114848000I750000J0D01*
G01*
D15*
G36*
X124421388Y-110886974D02*
G01*
X124416259Y-110986625D01*
X124400872Y-111051105D01*
X124375226Y-111087009D01*
X124340788Y-111098000D01*
X123001360Y-111098000D01*
X122887055Y-111057699D01*
X122840893Y-110926541D01*
X122840893Y-108596464D01*
X122887055Y-108465306D01*
X123001360Y-108425006D01*
X124332728Y-108425006D01*
X124365701Y-108435264D01*
X124390614Y-108471168D01*
X124406001Y-108537113D01*
X124411130Y-108638230D01*
X124406001Y-108735683D01*
X124390614Y-108800163D01*
X124365701Y-108836066D01*
X124332728Y-108847057D01*
X123380181Y-108847057D01*
X123380181Y-109503582D01*
X124186182Y-109503582D01*
X124220621Y-109515306D01*
X124246266Y-109551210D01*
X124261653Y-109615690D01*
X124266782Y-109715341D01*
X124261653Y-109816457D01*
X124246266Y-109880205D01*
X124220621Y-109915376D01*
X124186182Y-109925634D01*
X123380181Y-109925634D01*
X123380181Y-110675948D01*
X124340788Y-110675948D01*
X124375226Y-110687672D01*
X124400872Y-110723575D01*
X124416259Y-110788055D01*
X124421388Y-110886974D01*
G37*
G36*
X125710372Y-109087404D02*
G01*
X125856398Y-109107022D01*
X125926413Y-109123296D01*
X126066547Y-109176419D01*
X126179204Y-109252256D01*
X126273563Y-109365291D01*
X126323551Y-109475006D01*
X126357623Y-109624116D01*
X126368803Y-109775625D01*
X126368981Y-109798872D01*
X126368981Y-111022528D01*
X126348464Y-111067958D01*
X126283251Y-111091405D01*
X126152826Y-111098000D01*
X126017271Y-111090672D01*
X125957920Y-111067225D01*
X125940334Y-111021796D01*
X125940334Y-110875250D01*
X125826937Y-110978816D01*
X125699693Y-111061452D01*
X125681681Y-111070889D01*
X125538585Y-111124008D01*
X125392245Y-111144244D01*
X125359281Y-111144894D01*
X125210400Y-111134141D01*
X125090369Y-111106792D01*
X124950006Y-111044854D01*
X124877878Y-110993952D01*
X124777590Y-110880396D01*
X124738660Y-110808572D01*
X124697669Y-110663657D01*
X124689567Y-110549919D01*
X124691647Y-110530135D01*
X125196615Y-110530135D01*
X125237831Y-110670819D01*
X125269888Y-110705990D01*
X125404364Y-110764695D01*
X125472854Y-110769737D01*
X125620710Y-110742105D01*
X125673621Y-110716248D01*
X125795097Y-110623624D01*
X125859734Y-110557979D01*
X125859734Y-110253896D01*
X125661898Y-110253896D01*
X125513224Y-110261785D01*
X125447941Y-110272214D01*
X125307106Y-110323478D01*
X125303593Y-110325704D01*
X125222260Y-110412898D01*
X125196615Y-110530135D01*
X124691647Y-110530135D01*
X124705321Y-110400076D01*
X124752581Y-110271482D01*
X124842948Y-110151749D01*
X124940160Y-110076576D01*
X125079928Y-110009714D01*
X125227169Y-109967740D01*
X125250104Y-109963003D01*
X125397486Y-109940231D01*
X125547249Y-109928590D01*
X125680216Y-109925634D01*
X125859734Y-109925634D01*
X125859734Y-109811328D01*
X125844278Y-109663681D01*
X125842149Y-109655257D01*
X125784263Y-109543882D01*
X125677285Y-109477937D01*
X125529952Y-109456874D01*
X125511688Y-109456688D01*
X125360449Y-109468136D01*
X125280146Y-109485997D01*
X125140561Y-109533258D01*
X125099895Y-109550477D01*
X124968736Y-109614957D01*
X124883740Y-109644266D01*
X124843440Y-109629612D01*
X124814131Y-109586381D01*
X124796545Y-109518237D01*
X124790683Y-109428111D01*
X124800942Y-109323331D01*
X124839776Y-109253722D01*
X124940893Y-109192905D01*
X125080518Y-109146576D01*
X125110153Y-109138683D01*
X125258273Y-109107117D01*
X125321179Y-109097651D01*
X125474361Y-109083435D01*
X125557117Y-109081531D01*
X125710372Y-109087404D01*
G37*
G36*
X128169295Y-110511084D02*
G01*
X128154640Y-110657813D01*
X128110676Y-110785857D01*
X128023760Y-110913383D01*
X127944347Y-110985159D01*
X127811477Y-111062259D01*
X127690823Y-111104594D01*
X127538599Y-111134819D01*
X127384243Y-111144855D01*
X127373551Y-111144894D01*
X127223937Y-111135414D01*
X127176448Y-111128041D01*
X127032262Y-111093343D01*
X127008653Y-111085543D01*
X126884822Y-111032054D01*
X126813014Y-110981496D01*
X126777843Y-110911154D01*
X126765387Y-110772668D01*
X126769050Y-110676681D01*
X126781507Y-110618795D01*
X126802756Y-110589486D01*
X126833531Y-110582159D01*
X126900209Y-110611468D01*
X127010851Y-110675215D01*
X127147829Y-110734024D01*
X127163991Y-110739695D01*
X127309071Y-110767859D01*
X127363293Y-110769737D01*
X127487857Y-110755815D01*
X127583112Y-110714782D01*
X127643928Y-110646639D01*
X127664445Y-110552117D01*
X127626343Y-110446604D01*
X127525226Y-110369667D01*
X127387319Y-110309908D01*
X127382344Y-110308118D01*
X127240493Y-110253621D01*
X127219678Y-110245103D01*
X127087066Y-110181179D01*
X127057013Y-110164503D01*
X126934949Y-110073757D01*
X126914863Y-110053861D01*
X126828911Y-109929286D01*
X126813747Y-109895592D01*
X126779366Y-109751330D01*
X126775645Y-109674308D01*
X126793727Y-109526048D01*
X126826936Y-109433240D01*
X126909425Y-109308447D01*
X126975680Y-109245662D01*
X127105517Y-109165570D01*
X127211618Y-109124762D01*
X127359263Y-109092338D01*
X127512986Y-109081573D01*
X127523761Y-109081531D01*
X127671142Y-109091628D01*
X127691556Y-109094720D01*
X127835430Y-109125043D01*
X127839567Y-109126227D01*
X127950209Y-109167993D01*
X128015422Y-109206094D01*
X128043265Y-109238334D01*
X128055722Y-109276436D01*
X128063049Y-109331391D01*
X128065980Y-109411991D01*
X128063049Y-109505048D01*
X128052791Y-109561468D01*
X128033007Y-109590044D01*
X128004431Y-109597371D01*
X127945812Y-109575390D01*
X127848360Y-109527030D01*
X127712072Y-109479402D01*
X127566593Y-109457242D01*
X127536217Y-109456688D01*
X127414584Y-109470609D01*
X127330321Y-109509444D01*
X127280495Y-109568795D01*
X127264375Y-109641335D01*
X127303210Y-109748314D01*
X127406524Y-109823785D01*
X127541507Y-109881745D01*
X127551605Y-109885334D01*
X127690612Y-109937730D01*
X127716468Y-109948348D01*
X127850755Y-110010859D01*
X127881332Y-110027483D01*
X128002596Y-110114143D01*
X128027145Y-110138125D01*
X128114289Y-110261510D01*
X128129727Y-110294929D01*
X128166165Y-110443329D01*
X128169295Y-110511084D01*
G37*
G36*
X129589323Y-110860595D02*
G01*
X129577599Y-110996150D01*
X129547557Y-111062096D01*
X129493335Y-111096534D01*
X129409071Y-111122180D01*
X129303558Y-111139032D01*
X129189253Y-111144894D01*
X129036565Y-111133727D01*
X128921074Y-111105327D01*
X128789696Y-111036369D01*
X128734228Y-110985892D01*
X128653821Y-110861156D01*
X128625052Y-110781461D01*
X128597609Y-110637276D01*
X128589881Y-110489102D01*
X128589881Y-109550477D01*
X128370062Y-109550477D01*
X128309979Y-109502117D01*
X128289542Y-109353396D01*
X128289462Y-109339451D01*
X128294591Y-109238334D01*
X128309979Y-109173122D01*
X128335624Y-109138683D01*
X128371528Y-109128425D01*
X128589881Y-109128425D01*
X128589881Y-108702710D01*
X128600872Y-108663875D01*
X128642637Y-108635299D01*
X128722505Y-108618446D01*
X128847801Y-108612584D01*
X128973831Y-108618446D01*
X129052965Y-108635299D01*
X129094731Y-108663875D01*
X129107187Y-108702710D01*
X129107187Y-109128425D01*
X129507257Y-109128425D01*
X129543161Y-109138683D01*
X129568806Y-109173122D01*
X129584193Y-109238334D01*
X129589323Y-109339451D01*
X129573615Y-109488836D01*
X129568806Y-109502117D01*
X129508722Y-109550477D01*
X129107187Y-109550477D01*
X129107187Y-110420226D01*
X129122025Y-110566388D01*
X129154082Y-110647371D01*
X129287139Y-110721000D01*
X129323342Y-110722842D01*
X129397348Y-110715515D01*
X129455966Y-110699395D01*
X129499930Y-110682542D01*
X129531437Y-110675215D01*
X129554884Y-110682542D01*
X129572470Y-110711852D01*
X129584193Y-110769004D01*
X129589323Y-110860595D01*
G37*
G36*
X125948394Y-116051538D02*
G01*
X125936671Y-116088907D01*
X125895638Y-116115285D01*
X125816503Y-116132138D01*
X125691207Y-116138000D01*
X125566643Y-116132138D01*
X125488974Y-116115285D01*
X125447941Y-116088907D01*
X125435484Y-116051538D01*
X125435484Y-113887057D01*
X125431088Y-113887057D01*
X124658060Y-116049339D01*
X124630949Y-116094036D01*
X124580390Y-116121879D01*
X124499057Y-116135069D01*
X124380355Y-116138000D01*
X124260188Y-116132870D01*
X124178855Y-116116750D01*
X124128297Y-116088907D01*
X124104117Y-116049339D01*
X123358199Y-113887057D01*
X123353803Y-113887057D01*
X123353803Y-116051538D01*
X123342079Y-116088907D01*
X123300314Y-116115285D01*
X123221179Y-116132138D01*
X123096615Y-116138000D01*
X122972051Y-116132138D01*
X122892916Y-116115285D01*
X122851884Y-116088907D01*
X122840893Y-116051538D01*
X122840893Y-113681161D01*
X122880537Y-113539294D01*
X122896580Y-113520693D01*
X123033194Y-113465223D01*
X123044591Y-113465006D01*
X123399232Y-113465006D01*
X123549013Y-113477643D01*
X123561898Y-113480393D01*
X123679134Y-113531684D01*
X123761933Y-113626206D01*
X123818253Y-113765910D01*
X123819818Y-113771286D01*
X124396475Y-115356911D01*
X124404535Y-115356911D01*
X125002442Y-113775683D01*
X125057139Y-113637394D01*
X125061060Y-113629870D01*
X125135066Y-113533150D01*
X125235450Y-113480393D01*
X125369539Y-113465006D01*
X125733705Y-113465006D01*
X125829692Y-113479660D01*
X125895638Y-113521426D01*
X125934473Y-113589570D01*
X125948394Y-113681161D01*
X125948394Y-116051538D01*
G37*
G36*
X127386855Y-114127404D02*
G01*
X127532881Y-114147022D01*
X127602896Y-114163296D01*
X127743030Y-114216419D01*
X127855687Y-114292256D01*
X127950046Y-114405291D01*
X128000034Y-114515006D01*
X128034106Y-114664116D01*
X128045286Y-114815625D01*
X128045464Y-114838872D01*
X128045464Y-116062528D01*
X128024947Y-116107958D01*
X127959734Y-116131405D01*
X127829309Y-116138000D01*
X127693754Y-116130672D01*
X127634403Y-116107225D01*
X127616817Y-116061796D01*
X127616817Y-115915250D01*
X127503420Y-116018816D01*
X127376176Y-116101452D01*
X127358164Y-116110889D01*
X127215067Y-116164008D01*
X127068728Y-116184244D01*
X127035764Y-116184894D01*
X126886883Y-116174141D01*
X126766852Y-116146792D01*
X126626489Y-116084854D01*
X126554361Y-116033952D01*
X126454073Y-115920396D01*
X126415143Y-115848572D01*
X126374152Y-115703657D01*
X126366050Y-115589919D01*
X126368130Y-115570135D01*
X126873098Y-115570135D01*
X126914314Y-115710819D01*
X126946371Y-115745990D01*
X127080847Y-115804695D01*
X127149337Y-115809737D01*
X127297193Y-115782105D01*
X127350104Y-115756248D01*
X127471580Y-115663624D01*
X127536217Y-115597979D01*
X127536217Y-115293896D01*
X127338381Y-115293896D01*
X127189707Y-115301785D01*
X127124424Y-115312214D01*
X126983589Y-115363478D01*
X126980076Y-115365704D01*
X126898743Y-115452898D01*
X126873098Y-115570135D01*
X126368130Y-115570135D01*
X126381803Y-115440076D01*
X126429064Y-115311482D01*
X126519430Y-115191749D01*
X126616643Y-115116576D01*
X126756411Y-115049714D01*
X126903652Y-115007740D01*
X126926587Y-115003003D01*
X127073969Y-114980231D01*
X127223732Y-114968590D01*
X127356699Y-114965634D01*
X127536217Y-114965634D01*
X127536217Y-114851328D01*
X127520761Y-114703681D01*
X127518632Y-114695257D01*
X127460746Y-114583882D01*
X127353768Y-114517937D01*
X127206435Y-114496874D01*
X127188171Y-114496688D01*
X127036931Y-114508136D01*
X126956629Y-114525997D01*
X126817044Y-114573258D01*
X126776378Y-114590477D01*
X126645219Y-114654957D01*
X126560223Y-114684266D01*
X126519923Y-114669612D01*
X126490614Y-114626381D01*
X126473028Y-114558237D01*
X126467166Y-114468111D01*
X126477424Y-114363331D01*
X126516259Y-114293722D01*
X126617376Y-114232905D01*
X126757001Y-114186576D01*
X126786636Y-114178683D01*
X126934756Y-114147117D01*
X126997662Y-114137651D01*
X127150844Y-114123435D01*
X127233600Y-114121531D01*
X127386855Y-114127404D01*
G37*
G36*
X130259769Y-116058865D02*
G01*
X130248046Y-116094769D01*
X130207013Y-116118949D01*
X130125680Y-116132870D01*
X129991591Y-116138000D01*
X129854570Y-116134336D01*
X129767376Y-116121147D01*
X129715352Y-116095501D01*
X129682379Y-116053003D01*
X129070551Y-115100456D01*
X129070551Y-116056667D01*
X129058094Y-116092570D01*
X129015596Y-116118216D01*
X128936461Y-116132870D01*
X128810432Y-116138000D01*
X128684403Y-116132870D01*
X128605268Y-116117483D01*
X128563503Y-116091838D01*
X128551046Y-116055934D01*
X128551046Y-113365355D01*
X128563503Y-113328718D01*
X128605268Y-113300875D01*
X128684403Y-113284022D01*
X128810432Y-113277427D01*
X128936461Y-113284022D01*
X129015596Y-113301607D01*
X129058094Y-113329451D01*
X129070551Y-113366087D01*
X129070551Y-114978823D01*
X129614968Y-114259284D01*
X129651605Y-114216785D01*
X129706559Y-114188942D01*
X129790823Y-114173554D01*
X129919783Y-114168425D01*
X130048011Y-114173554D01*
X130132274Y-114188942D01*
X130176971Y-114213854D01*
X130189427Y-114251224D01*
X130174040Y-114316436D01*
X130127878Y-114388976D01*
X129590055Y-114989081D01*
X130212142Y-115935034D01*
X130248046Y-116005376D01*
X130259769Y-116058865D01*
G37*
G36*
X131431909Y-114129583D02*
G01*
X131578157Y-114156734D01*
X131675401Y-114189674D01*
X131807655Y-114259398D01*
X131924144Y-114356513D01*
X131944312Y-114378718D01*
X132030833Y-114501883D01*
X132092561Y-114644690D01*
X132098918Y-114665215D01*
X132132978Y-114815582D01*
X132147527Y-114965003D01*
X132148743Y-115024985D01*
X132148743Y-115107783D01*
X132106245Y-115248467D01*
X131989741Y-115293896D01*
X130870865Y-115293896D01*
X130884025Y-115446060D01*
X130898709Y-115508586D01*
X130962339Y-115641124D01*
X130987369Y-115671984D01*
X131109414Y-115760244D01*
X131144173Y-115774566D01*
X131293818Y-115806302D01*
X131373517Y-115809737D01*
X131523476Y-115801988D01*
X131612386Y-115787755D01*
X131756821Y-115750725D01*
X131791172Y-115739395D01*
X131915736Y-115691035D01*
X131996336Y-115669053D01*
X132027110Y-115676381D01*
X132047627Y-115701293D01*
X132059351Y-115752584D01*
X132062281Y-115835383D01*
X132060083Y-115910854D01*
X132053489Y-115964343D01*
X132041765Y-116001712D01*
X132019783Y-116030288D01*
X131946510Y-116070588D01*
X131805603Y-116119404D01*
X131794103Y-116122612D01*
X131647003Y-116155018D01*
X131581612Y-116165843D01*
X131434100Y-116181750D01*
X131326622Y-116184894D01*
X131179146Y-116178883D01*
X131030642Y-116158387D01*
X130896510Y-116123345D01*
X130756996Y-116062936D01*
X130628928Y-115974620D01*
X130588764Y-115937232D01*
X130492473Y-115815115D01*
X130424660Y-115679368D01*
X130404117Y-115621426D01*
X130367057Y-115468824D01*
X130348111Y-115312826D01*
X130343300Y-115173729D01*
X130349526Y-115025952D01*
X130357970Y-114965634D01*
X130870865Y-114965634D01*
X131646092Y-114965634D01*
X131636475Y-114814612D01*
X131589832Y-114672019D01*
X131558164Y-114621984D01*
X131438913Y-114528012D01*
X131292793Y-114497177D01*
X131268736Y-114496688D01*
X131120069Y-114523291D01*
X131096545Y-114534057D01*
X130981055Y-114625934D01*
X130974912Y-114633708D01*
X130905915Y-114766577D01*
X130900907Y-114782452D01*
X130873260Y-114929501D01*
X130870865Y-114965634D01*
X130357970Y-114965634D01*
X130370754Y-114874308D01*
X130407048Y-114734092D01*
X130462998Y-114595262D01*
X130541983Y-114463934D01*
X130592428Y-114401433D01*
X130699962Y-114301341D01*
X130824909Y-114222533D01*
X130888450Y-114193338D01*
X131037397Y-114146845D01*
X131187767Y-114124967D01*
X131281193Y-114121531D01*
X131431909Y-114129583D01*
G37*
G36*
X133858199Y-115551084D02*
G01*
X133843545Y-115697813D01*
X133799581Y-115825857D01*
X133712664Y-115953383D01*
X133633251Y-116025159D01*
X133500381Y-116102259D01*
X133379727Y-116144594D01*
X133227503Y-116174819D01*
X133073147Y-116184855D01*
X133062456Y-116184894D01*
X132912842Y-116175414D01*
X132865352Y-116168041D01*
X132721167Y-116133343D01*
X132697557Y-116125543D01*
X132573726Y-116072054D01*
X132501919Y-116021496D01*
X132466748Y-115951154D01*
X132454291Y-115812668D01*
X132457955Y-115716681D01*
X132470411Y-115658795D01*
X132491660Y-115629486D01*
X132522435Y-115622159D01*
X132589113Y-115651468D01*
X132699755Y-115715215D01*
X132836733Y-115774024D01*
X132852896Y-115779695D01*
X132997976Y-115807859D01*
X133052198Y-115809737D01*
X133176762Y-115795815D01*
X133272016Y-115754782D01*
X133332833Y-115686639D01*
X133353349Y-115592117D01*
X133315247Y-115486604D01*
X133214131Y-115409667D01*
X133076224Y-115349908D01*
X133071249Y-115348118D01*
X132929397Y-115293621D01*
X132908583Y-115285103D01*
X132775970Y-115221179D01*
X132745917Y-115204503D01*
X132623853Y-115113757D01*
X132603768Y-115093861D01*
X132517815Y-114969286D01*
X132502651Y-114935592D01*
X132468270Y-114791330D01*
X132464549Y-114714308D01*
X132482631Y-114566048D01*
X132515840Y-114473240D01*
X132598330Y-114348447D01*
X132664584Y-114285662D01*
X132794422Y-114205570D01*
X132900523Y-114164762D01*
X133048168Y-114132338D01*
X133201890Y-114121573D01*
X133212665Y-114121531D01*
X133360047Y-114131628D01*
X133380460Y-114134720D01*
X133524334Y-114165043D01*
X133528471Y-114166227D01*
X133639113Y-114207993D01*
X133704326Y-114246094D01*
X133732170Y-114278334D01*
X133744626Y-114316436D01*
X133751953Y-114371391D01*
X133754884Y-114451991D01*
X133751953Y-114545048D01*
X133741695Y-114601468D01*
X133721912Y-114630044D01*
X133693335Y-114637371D01*
X133634717Y-114615390D01*
X133537264Y-114567030D01*
X133400976Y-114519402D01*
X133255497Y-114497242D01*
X133225122Y-114496688D01*
X133103489Y-114510609D01*
X133019225Y-114549444D01*
X132969399Y-114608795D01*
X132953279Y-114681335D01*
X132992114Y-114788314D01*
X133095429Y-114863785D01*
X133230411Y-114921745D01*
X133240509Y-114925334D01*
X133379516Y-114977730D01*
X133405373Y-114988348D01*
X133539660Y-115050859D01*
X133570237Y-115067483D01*
X133691500Y-115154143D01*
X133716050Y-115178125D01*
X133803193Y-115301510D01*
X133818632Y-115334929D01*
X133855069Y-115483329D01*
X133858199Y-115551084D01*
G37*
D16*
%TO.C,3V3*%
X117794000Y-91440000D02*
G75*
G02*
X116394000Y-91440000I-700000J0D01*
G01*
X116394000Y-91440000D02*
G75*
G02*
X117794000Y-91440000I700000J0D01*
G01*
%TO.C,HS_I1*%
X116524000Y-104267000D02*
G75*
G02*
X115124000Y-104267000I-700000J0D01*
G01*
X115124000Y-104267000D02*
G75*
G02*
X116524000Y-104267000I700000J0D01*
G01*
%TO.C,HS_F1*%
X118429000Y-100457000D02*
G75*
G02*
X117029000Y-100457000I-700000J0D01*
G01*
X117029000Y-100457000D02*
G75*
G02*
X118429000Y-100457000I700000J0D01*
G01*
D13*
%TO.C,D1*%
X128627000Y-96610000D02*
X129102000Y-96610000D01*
X128852000Y-96810000D02*
X128627000Y-96610000D01*
X129102000Y-96610000D02*
X128852000Y-96810000D01*
D16*
%TO.C,LS_B1*%
X118429000Y-94742000D02*
G75*
G02*
X117029000Y-94742000I-700000J0D01*
G01*
X117029000Y-94742000D02*
G75*
G02*
X118429000Y-94742000I700000J0D01*
G01*
%TO.C,LS_D1*%
X118429000Y-97282000D02*
G75*
G02*
X117029000Y-97282000I-700000J0D01*
G01*
X117029000Y-97282000D02*
G75*
G02*
X118429000Y-97282000I700000J0D01*
G01*
%TO.C,DIN1*%
X127332004Y-91970000D02*
X127332007Y-90569998D01*
X128032002Y-89870001D02*
X128632007Y-89869998D01*
X128632008Y-92669995D02*
X128032003Y-92669998D01*
X129332006Y-90569996D02*
X129332003Y-91969998D01*
X127332007Y-90569998D02*
G75*
G02*
X128032002Y-89870001I699996J1D01*
G01*
X128032003Y-92669998D02*
G75*
G02*
X127332005Y-91970000I2J700000D01*
G01*
X128632007Y-89869998D02*
G75*
G02*
X129332006Y-90569996I-5J-700004D01*
G01*
X129332003Y-91969998D02*
G75*
G02*
X128632008Y-92669996I-699998J0D01*
G01*
%TO.C,GND2*%
X117794000Y-106680000D02*
G75*
G02*
X116394000Y-106680000I-700000J0D01*
G01*
X116394000Y-106680000D02*
G75*
G02*
X117794000Y-106680000I700000J0D01*
G01*
%TO.C,HS_H1*%
X118429000Y-102997000D02*
G75*
G02*
X117029000Y-102997000I-700000J0D01*
G01*
X117029000Y-102997000D02*
G75*
G02*
X118429000Y-102997000I700000J0D01*
G01*
D13*
%TO.C,D4*%
X128627000Y-104935000D02*
X129102000Y-104935000D01*
X128852000Y-105135000D02*
X128627000Y-104935000D01*
X129102000Y-104935000D02*
X128852000Y-105135000D01*
D16*
%TO.C,PWR1*%
X129922000Y-91970004D02*
X129922003Y-90570002D01*
X130621998Y-89870005D02*
X131222003Y-89870002D01*
X131222004Y-92669999D02*
X130621999Y-92670002D01*
X131922002Y-90570000D02*
X131921999Y-91970002D01*
X129922003Y-90570002D02*
G75*
G02*
X130621998Y-89870005I699996J1D01*
G01*
X130621999Y-92670002D02*
G75*
G02*
X129922001Y-91970004I2J700000D01*
G01*
X131222003Y-89870002D02*
G75*
G02*
X131922002Y-90570000I-5J-700004D01*
G01*
X131921999Y-91970002D02*
G75*
G02*
X131222004Y-92670000I-699998J0D01*
G01*
%TO.C,LS_A1*%
X116524000Y-93472000D02*
G75*
G02*
X115124000Y-93472000I-700000J0D01*
G01*
X115124000Y-93472000D02*
G75*
G02*
X116524000Y-93472000I700000J0D01*
G01*
%TO.C,LS_C1*%
X116524000Y-96012000D02*
G75*
G02*
X115124000Y-96012000I-700000J0D01*
G01*
X115124000Y-96012000D02*
G75*
G02*
X116524000Y-96012000I700000J0D01*
G01*
%TO.C,JP1*%
X107395997Y-104010003D02*
X107996003Y-104010001D01*
X108696001Y-104709998D02*
X108696000Y-106110000D01*
X106695999Y-106110002D02*
X106696000Y-104710000D01*
X107996003Y-106809997D02*
X107395997Y-106809999D01*
X107996003Y-104010001D02*
G75*
G02*
X108696002Y-104709998I-6J-700005D01*
G01*
X106696000Y-104710000D02*
G75*
G02*
X107395997Y-104009998I700002J0D01*
G01*
X108696000Y-106110000D02*
G75*
G02*
X107996003Y-106810000I-700000J0D01*
G01*
X107395997Y-106809999D02*
G75*
G02*
X106696001Y-106110002I3J699999D01*
G01*
D13*
%TO.C,D3*%
X128627000Y-102160000D02*
X129102000Y-102160000D01*
X128852000Y-102360000D02*
X128627000Y-102160000D01*
X129102000Y-102160000D02*
X128852000Y-102360000D01*
D16*
%TO.C,HS_G1*%
X116524000Y-101727000D02*
G75*
G02*
X115124000Y-101727000I-700000J0D01*
G01*
X115124000Y-101727000D02*
G75*
G02*
X116524000Y-101727000I700000J0D01*
G01*
%TO.C,LS_E1*%
X116524000Y-98552000D02*
G75*
G02*
X115124000Y-98552000I-700000J0D01*
G01*
X115124000Y-98552000D02*
G75*
G02*
X116524000Y-98552000I700000J0D01*
G01*
%TO.C,GND1*%
X124822000Y-91970004D02*
X124822003Y-90570002D01*
X125521998Y-89870005D02*
X126122003Y-89870002D01*
X126122004Y-92669999D02*
X125521999Y-92670002D01*
X126822002Y-90570000D02*
X126821999Y-91970002D01*
X124822003Y-90570002D02*
G75*
G02*
X125521998Y-89870005I699996J1D01*
G01*
X125521999Y-92670002D02*
G75*
G02*
X124822001Y-91970004I2J700000D01*
G01*
X126122003Y-89870002D02*
G75*
G02*
X126822002Y-90570000I-5J-700004D01*
G01*
X126821999Y-91970002D02*
G75*
G02*
X126122004Y-92670000I-699998J0D01*
G01*
D13*
%TO.C,D2*%
X128627000Y-99385000D02*
X129102000Y-99385000D01*
X128852000Y-99585000D02*
X128627000Y-99385000D01*
X129102000Y-99385000D02*
X128852000Y-99585000D01*
%TD*%
D17*
X110850000Y-87500000D03*
X111333274Y-86333274D03*
X111333274Y-88666726D03*
X112500000Y-85850000D03*
X112500000Y-87500000D03*
X112500000Y-89150000D03*
X113666726Y-86333274D03*
X113666726Y-88666726D03*
X114150000Y-87500000D03*
X110850000Y-112500000D03*
X111333274Y-111333274D03*
X111333274Y-113666726D03*
X112500000Y-110850000D03*
X112500000Y-112500000D03*
X112500000Y-114150000D03*
X113666726Y-111333274D03*
X113666726Y-113666726D03*
X114150000Y-112500000D03*
M02*
