%TF.GenerationSoftware,KiCad,Pcbnew,8.0.1*%
%TF.CreationDate,2024-08-04T19:12:34+01:00*%
%TF.ProjectId,hexpansion,68657870-616e-4736-996f-6e2e6b696361,rev?*%
%TF.SameCoordinates,Original*%
%TF.FileFunction,Copper,L1,Top*%
%TF.FilePolarity,Positive*%
%FSLAX46Y46*%
G04 Gerber Fmt 4.6, Leading zero omitted, Abs format (unit mm)*
G04 Created by KiCad (PCBNEW 8.0.1) date 2024-08-04 19:12:34*
%MOMM*%
%LPD*%
G01*
G04 APERTURE LIST*
G04 Aperture macros list*
%AMRoundRect*
0 Rectangle with rounded corners*
0 $1 Rounding radius*
0 $2 $3 $4 $5 $6 $7 $8 $9 X,Y pos of 4 corners*
0 Add a 4 corners polygon primitive as box body*
4,1,4,$2,$3,$4,$5,$6,$7,$8,$9,$2,$3,0*
0 Add four circle primitives for the rounded corners*
1,1,$1+$1,$2,$3*
1,1,$1+$1,$4,$5*
1,1,$1+$1,$6,$7*
1,1,$1+$1,$8,$9*
0 Add four rect primitives between the rounded corners*
20,1,$1+$1,$2,$3,$4,$5,0*
20,1,$1+$1,$4,$5,$6,$7,0*
20,1,$1+$1,$6,$7,$8,$9,0*
20,1,$1+$1,$8,$9,$2,$3,0*%
%AMFreePoly0*
4,1,19,0.500000,-0.750000,0.000000,-0.750000,0.000000,-0.744911,-0.071157,-0.744911,-0.207708,-0.704816,-0.327430,-0.627875,-0.420627,-0.520320,-0.479746,-0.390866,-0.500000,-0.250000,-0.500000,0.250000,-0.479746,0.390866,-0.420627,0.520320,-0.327430,0.627875,-0.207708,0.704816,-0.071157,0.744911,0.000000,0.744911,0.000000,0.750000,0.500000,0.750000,0.500000,-0.750000,0.500000,-0.750000,
$1*%
%AMFreePoly1*
4,1,19,0.000000,0.744911,0.071157,0.744911,0.207708,0.704816,0.327430,0.627875,0.420627,0.520320,0.479746,0.390866,0.500000,0.250000,0.500000,-0.250000,0.479746,-0.390866,0.420627,-0.520320,0.327430,-0.627875,0.207708,-0.704816,0.071157,-0.744911,0.000000,-0.744911,0.000000,-0.750000,-0.500000,-0.750000,-0.500000,0.750000,0.000000,0.750000,0.000000,0.744911,0.000000,0.744911,
$1*%
G04 Aperture macros list end*
%TA.AperFunction,EtchedComponent*%
%ADD10C,0.000000*%
%TD*%
%TA.AperFunction,SMDPad,CuDef*%
%ADD11C,1.000000*%
%TD*%
%TA.AperFunction,SMDPad,CuDef*%
%ADD12RoundRect,0.150000X1.600000X0.150000X-1.600000X0.150000X-1.600000X-0.150000X1.600000X-0.150000X0*%
%TD*%
%TA.AperFunction,SMDPad,CuDef*%
%ADD13RoundRect,0.150000X1.200000X0.150000X-1.200000X0.150000X-1.200000X-0.150000X1.200000X-0.150000X0*%
%TD*%
%TA.AperFunction,SMDPad,CuDef*%
%ADD14R,0.550000X0.550000*%
%TD*%
%TA.AperFunction,SMDPad,CuDef*%
%ADD15FreePoly0,270.000000*%
%TD*%
%TA.AperFunction,SMDPad,CuDef*%
%ADD16FreePoly1,270.000000*%
%TD*%
%TA.AperFunction,ComponentPad*%
%ADD17C,0.700000*%
%TD*%
%TA.AperFunction,ComponentPad*%
%ADD18C,4.400000*%
%TD*%
%TA.AperFunction,ViaPad*%
%ADD19C,0.800000*%
%TD*%
%TA.AperFunction,Conductor*%
%ADD20C,0.250000*%
%TD*%
%ADD21C,0.350000*%
G04 APERTURE END LIST*
D10*
%TA.AperFunction,EtchedComponent*%
%TO.C,DIN1*%
G36*
X128632006Y-91019999D02*
G01*
X128632005Y-91519998D01*
X128032004Y-91519997D01*
X128032005Y-91019998D01*
X128632006Y-91019999D01*
G37*
%TD.AperFunction*%
%TA.AperFunction,EtchedComponent*%
%TO.C,PWR1*%
G36*
X131222002Y-91020003D02*
G01*
X131222001Y-91520002D01*
X130622000Y-91520001D01*
X130622001Y-91020002D01*
X131222002Y-91020003D01*
G37*
%TD.AperFunction*%
%TA.AperFunction,EtchedComponent*%
%TO.C,JP1*%
G36*
X107996000Y-105659998D02*
G01*
X107395999Y-105659999D01*
X107396000Y-105160002D01*
X107996001Y-105160001D01*
X107996000Y-105659998D01*
G37*
%TD.AperFunction*%
%TA.AperFunction,EtchedComponent*%
%TO.C,GND1*%
G36*
X126122002Y-91020003D02*
G01*
X126122001Y-91520002D01*
X125522000Y-91520001D01*
X125522001Y-91020002D01*
X126122002Y-91020003D01*
G37*
%TD.AperFunction*%
%TD*%
D11*
%TO.P,3V3,1,1*%
%TO.N,/3V3*%
X117094000Y-91440000D03*
%TD*%
%TO.P,HS_I1,1,1*%
%TO.N,/HS_I*%
X115824000Y-104267000D03*
%TD*%
D12*
%TO.P,J1,11,GND*%
%TO.N,/GND*%
X100500000Y-96600000D03*
D13*
%TO.P,J1,12,HS_F*%
%TO.N,/HS_F*%
X100900000Y-97400000D03*
%TO.P,J1,13,HS_G*%
%TO.N,/HS_G*%
X100900000Y-98200000D03*
D12*
%TO.P,J1,14,GND*%
%TO.N,/GND*%
X100500000Y-99000000D03*
D13*
%TO.P,J1,15,3V3*%
%TO.N,/3V3*%
X100900000Y-99800000D03*
%TO.P,J1,16,3V3*%
X100900000Y-100600000D03*
D12*
%TO.P,J1,17,GND*%
%TO.N,/GND*%
X100500000Y-101400000D03*
D13*
%TO.P,J1,18,HS_H*%
%TO.N,/HS_H*%
X100900000Y-102200000D03*
%TO.P,J1,19,HS_I*%
%TO.N,/HS_I*%
X100900000Y-103000000D03*
D12*
%TO.P,J1,20,GND*%
%TO.N,/GND*%
X100500000Y-103800000D03*
%TD*%
D11*
%TO.P,HS_F1,1,1*%
%TO.N,/HS_F*%
X117729000Y-100457000D03*
%TD*%
D14*
%TO.P,D1,1,DIN*%
%TO.N,Net-(D1-DIN)*%
X127902000Y-97085000D03*
%TO.P,D1,2,VDD*%
%TO.N,Net-(D1-VDD)*%
X128852000Y-97085000D03*
%TO.P,D1,3,DOUT*%
%TO.N,Net-(D1-DOUT)*%
X128852000Y-96135000D03*
%TO.P,D1,4,VSS*%
%TO.N,Net-(D1-VSS)*%
X127902000Y-96135000D03*
%TD*%
D11*
%TO.P,LS_B1,1,1*%
%TO.N,/LS_B*%
X117729000Y-94742000D03*
%TD*%
%TO.P,LS_D1,1,1*%
%TO.N,/LS_D*%
X117729000Y-97282000D03*
%TD*%
D15*
%TO.P,DIN1,1,A*%
%TO.N,/HS_F*%
X128332004Y-90619996D03*
D16*
%TO.P,DIN1,2,B*%
%TO.N,Net-(D1-DIN)*%
X128332006Y-91920000D03*
%TD*%
D11*
%TO.P,GND2,1,1*%
%TO.N,/GND*%
X117094000Y-106680000D03*
%TD*%
%TO.P,HS_H1,1,1*%
%TO.N,/HS_H*%
X117729000Y-102997000D03*
%TD*%
D14*
%TO.P,D4,1,DIN*%
%TO.N,Net-(D3-DOUT)*%
X127902000Y-105410000D03*
%TO.P,D4,2,VDD*%
%TO.N,Net-(D1-VDD)*%
X128852000Y-105410000D03*
%TO.P,D4,3,DOUT*%
%TO.N,unconnected-(D4-DOUT-Pad3)*%
X128852000Y-104460000D03*
%TO.P,D4,4,VSS*%
%TO.N,Net-(D1-VSS)*%
X127902000Y-104460000D03*
%TD*%
D17*
%TO.P,H2,1,1*%
%TO.N,/GND*%
X110850000Y-87500000D03*
X111333274Y-86333274D03*
X111333274Y-88666726D03*
X112500000Y-85850000D03*
D18*
X112500000Y-87500000D03*
D17*
X112500000Y-89150000D03*
X113666726Y-86333274D03*
X113666726Y-88666726D03*
X114150000Y-87500000D03*
%TD*%
D15*
%TO.P,PWR1,1,A*%
%TO.N,/3V3*%
X130922000Y-90620000D03*
D16*
%TO.P,PWR1,2,B*%
%TO.N,Net-(D1-VDD)*%
X130922002Y-91920004D03*
%TD*%
D11*
%TO.P,LS_A1,1,1*%
%TO.N,/LS_A*%
X115824000Y-93472000D03*
%TD*%
%TO.P,LS_C1,1,1*%
%TO.N,/LS_C*%
X115824000Y-96012000D03*
%TD*%
D15*
%TO.P,JP1,1,A*%
%TO.N,/HEXP_DET*%
X107695999Y-104759998D03*
D16*
%TO.P,JP1,2,B*%
%TO.N,/GND*%
X107696001Y-106060002D03*
%TD*%
D14*
%TO.P,D3,1,DIN*%
%TO.N,Net-(D2-DOUT)*%
X127902000Y-102635000D03*
%TO.P,D3,2,VDD*%
%TO.N,Net-(D1-VDD)*%
X128852000Y-102635000D03*
%TO.P,D3,3,DOUT*%
%TO.N,Net-(D3-DOUT)*%
X128852000Y-101685000D03*
%TO.P,D3,4,VSS*%
%TO.N,Net-(D1-VSS)*%
X127902000Y-101685000D03*
%TD*%
D11*
%TO.P,HS_G1,1,1*%
%TO.N,/HS_G*%
X115824000Y-101727000D03*
%TD*%
%TO.P,LS_E1,1,1*%
%TO.N,/LS_E*%
X115824000Y-98552000D03*
%TD*%
D15*
%TO.P,GND1,1,A*%
%TO.N,/GND*%
X125822000Y-90620000D03*
D16*
%TO.P,GND1,2,B*%
%TO.N,Net-(D1-VSS)*%
X125822002Y-91920004D03*
%TD*%
D17*
%TO.P,H1,1,1*%
%TO.N,/GND*%
X110850000Y-112500000D03*
X111333274Y-111333274D03*
X111333274Y-113666726D03*
X112500000Y-110850000D03*
D18*
X112500000Y-112500000D03*
D17*
X112500000Y-114150000D03*
X113666726Y-111333274D03*
X113666726Y-113666726D03*
X114150000Y-112500000D03*
%TD*%
D14*
%TO.P,D2,1,DIN*%
%TO.N,Net-(D1-DOUT)*%
X127902000Y-99860000D03*
%TO.P,D2,2,VDD*%
%TO.N,Net-(D1-VDD)*%
X128852000Y-99860000D03*
%TO.P,D2,3,DOUT*%
%TO.N,Net-(D2-DOUT)*%
X128852000Y-98910000D03*
%TO.P,D2,4,VSS*%
%TO.N,Net-(D1-VSS)*%
X127902000Y-98910000D03*
%TD*%
D19*
%TO.N,/HEXP_DET*%
X110744000Y-104902000D03*
X110744000Y-102870000D03*
X105559132Y-99725000D03*
%TO.N,/GND*%
X109728000Y-102616000D03*
X106680000Y-101075000D03*
X106934000Y-99023000D03*
%TO.N,/3V3*%
X130810000Y-89408000D03*
X123952000Y-89408000D03*
X114808000Y-92202000D03*
X107945347Y-100833347D03*
%TO.N,/GND*%
X105918000Y-105918000D03*
X105918000Y-93726000D03*
%TO.N,/LS_C*%
X113792000Y-96012000D03*
%TO.N,/LS_D*%
X113792000Y-97282000D03*
%TO.N,/LS_E*%
X113792000Y-98552000D03*
%TO.N,/HS_F*%
X113792000Y-100330000D03*
%TO.N,/HS_G*%
X113792000Y-101600000D03*
%TO.N,/HS_H*%
X113792000Y-102870000D03*
%TO.N,/HS_I*%
X113792000Y-104140000D03*
%TO.N,Net-(D1-DIN)*%
X126852000Y-97300000D03*
X129682000Y-94200000D03*
%TO.N,Net-(D1-DOUT)*%
X129777000Y-96135000D03*
X126662000Y-99860000D03*
%TO.N,Net-(D2-DOUT)*%
X130042000Y-98920000D03*
X126692000Y-102520000D03*
%TO.N,Net-(D3-DOUT)*%
X130182000Y-101450000D03*
X126882000Y-105390000D03*
%TO.N,/LS_B*%
X113792000Y-94742000D03*
%TO.N,/LS_A*%
X113792000Y-93472000D03*
%TD*%
D20*
%TO.N,/GND*%
X106911000Y-99000000D02*
X100500000Y-99000000D01*
X106934000Y-99023000D02*
X106911000Y-99000000D01*
%TO.N,/3V3*%
X106379695Y-100350000D02*
X106129695Y-100600000D01*
X107462000Y-100350000D02*
X106379695Y-100350000D01*
X106129695Y-100600000D02*
X100900000Y-100600000D01*
X107945347Y-100833347D02*
X107462000Y-100350000D01*
X103594000Y-99800000D02*
X100900000Y-99800000D01*
X104394000Y-100600000D02*
X103594000Y-99800000D01*
%TO.N,/HEXP_DET*%
X110601998Y-104759998D02*
X110744000Y-104902000D01*
X107695999Y-104759998D02*
X110601998Y-104759998D01*
X110744000Y-102606695D02*
X110744000Y-102870000D01*
X107885305Y-99748000D02*
X110744000Y-102606695D01*
X105559132Y-99725000D02*
X105582132Y-99748000D01*
X105582132Y-99748000D02*
X107885305Y-99748000D01*
%TO.N,/GND*%
X108628000Y-101770000D02*
X107375000Y-101770000D01*
X107375000Y-101770000D02*
X106680000Y-101075000D01*
X109474000Y-102616000D02*
X108628000Y-101770000D01*
X109728000Y-102616000D02*
X109474000Y-102616000D01*
%TO.N,/HS_H*%
X112522000Y-102870000D02*
X113792000Y-102870000D01*
X109474000Y-103632000D02*
X111760000Y-103632000D01*
X111760000Y-103632000D02*
X112522000Y-102870000D01*
X108062000Y-102220000D02*
X109474000Y-103632000D01*
X105850000Y-102200000D02*
X105870000Y-102220000D01*
X105870000Y-102220000D02*
X108062000Y-102220000D01*
X100900000Y-102200000D02*
X105850000Y-102200000D01*
%TO.N,/HS_I*%
X109220000Y-104140000D02*
X113792000Y-104140000D01*
X108080000Y-103000000D02*
X109220000Y-104140000D01*
X100900000Y-103000000D02*
X108080000Y-103000000D01*
%TO.N,/HS_G*%
X111125000Y-101600000D02*
X113792000Y-101600000D01*
X107725000Y-98200000D02*
X111125000Y-101600000D01*
X105750000Y-98200000D02*
X107725000Y-98200000D01*
%TO.N,/GND*%
X106680000Y-101092000D02*
X106680000Y-101075000D01*
X100500000Y-101400000D02*
X106372000Y-101400000D01*
X106372000Y-101400000D02*
X106680000Y-101092000D01*
%TO.N,/3V3*%
X115570000Y-91440000D02*
X117094000Y-91440000D01*
X114808000Y-92202000D02*
X115570000Y-91440000D01*
X130922000Y-89520000D02*
X130810000Y-89408000D01*
X130922000Y-90620000D02*
X130922000Y-89520000D01*
X118110000Y-89408000D02*
X123952000Y-89408000D01*
X117094000Y-90424000D02*
X118110000Y-89408000D01*
X117094000Y-91440000D02*
X117094000Y-90424000D01*
%TO.N,/GND*%
X100500000Y-96600000D02*
X105610000Y-96600000D01*
X105880000Y-103800000D02*
X105910000Y-103830000D01*
X100500000Y-103800000D02*
X105880000Y-103800000D01*
%TO.N,/LS_C*%
X115824000Y-96012000D02*
X113792000Y-96012000D01*
%TO.N,/LS_D*%
X117729000Y-97282000D02*
X113792000Y-97282000D01*
%TO.N,/LS_E*%
X115824000Y-98552000D02*
X113792000Y-98552000D01*
%TO.N,/HS_F*%
X117729000Y-100457000D02*
X113919000Y-100457000D01*
X128092000Y-88410000D02*
X117076000Y-88410000D01*
X110880000Y-100330000D02*
X113792000Y-100330000D01*
X128332004Y-90619996D02*
X128332004Y-88940004D01*
X107950000Y-97400000D02*
X110880000Y-100330000D01*
X107950000Y-97400000D02*
X105480000Y-97400000D01*
X100900000Y-97400000D02*
X105480000Y-97400000D01*
X128332000Y-88940000D02*
X128332000Y-88650000D01*
X105680000Y-97400000D02*
X105690000Y-97390000D01*
X117076000Y-88410000D02*
X108086000Y-97400000D01*
X113919000Y-100457000D02*
X113792000Y-100330000D01*
X128332000Y-88650000D02*
X128092000Y-88410000D01*
X128332004Y-88940004D02*
X128332000Y-88940000D01*
X108086000Y-97400000D02*
X107950000Y-97400000D01*
X105480000Y-97400000D02*
X105680000Y-97400000D01*
%TO.N,/HS_G*%
X100900000Y-98200000D02*
X105750000Y-98200000D01*
X113919000Y-101727000D02*
X113792000Y-101600000D01*
X105750000Y-98200000D02*
X105760000Y-98190000D01*
X115824000Y-101727000D02*
X113919000Y-101727000D01*
%TO.N,/HS_H*%
X113919000Y-102997000D02*
X113792000Y-102870000D01*
X117729000Y-102997000D02*
X113919000Y-102997000D01*
%TO.N,/HS_I*%
X113919000Y-104267000D02*
X113792000Y-104140000D01*
X115824000Y-104267000D02*
X113919000Y-104267000D01*
%TO.N,Net-(D1-DIN)*%
X127067000Y-97085000D02*
X126852000Y-97300000D01*
X128332006Y-91920000D02*
X128332006Y-93100006D01*
X129432000Y-94200000D02*
X129682000Y-94200000D01*
X127902000Y-97085000D02*
X127067000Y-97085000D01*
X128332006Y-93100006D02*
X129432000Y-94200000D01*
%TO.N,Net-(D1-VDD)*%
X132632000Y-98620000D02*
X132632000Y-95920000D01*
X128852000Y-97085000D02*
X131467000Y-97085000D01*
X132632000Y-101210000D02*
X132632000Y-98620000D01*
X132632000Y-93630002D02*
X130922002Y-91920004D01*
X132632000Y-104530000D02*
X132632000Y-101210000D01*
X128852000Y-102635000D02*
X131207000Y-102635000D01*
X128852000Y-99860000D02*
X131392000Y-99860000D01*
X131752000Y-105410000D02*
X132632000Y-104530000D01*
X131467000Y-97085000D02*
X132632000Y-95920000D01*
X132632000Y-95920000D02*
X132632000Y-93630002D01*
X128852000Y-105410000D02*
X131752000Y-105410000D01*
X131207000Y-102635000D02*
X132632000Y-101210000D01*
X131392000Y-99860000D02*
X132632000Y-98620000D01*
%TO.N,Net-(D1-VSS)*%
X127207002Y-101685000D02*
X125822002Y-100300000D01*
X127282002Y-98910000D02*
X125822002Y-97450000D01*
X125822002Y-97450000D02*
X125822002Y-100300000D01*
X126987002Y-96135000D02*
X125822002Y-94970000D01*
X127032000Y-104460000D02*
X127902000Y-104460000D01*
X127902000Y-96135000D02*
X126987002Y-96135000D01*
X125812000Y-103240000D02*
X127032000Y-104460000D01*
X125822002Y-100300000D02*
X125822002Y-103229998D01*
X125822002Y-91920004D02*
X125822002Y-94970000D01*
X127902000Y-101685000D02*
X127207002Y-101685000D01*
X125822002Y-103229998D02*
X125812000Y-103240000D01*
X127902000Y-98910000D02*
X127282002Y-98910000D01*
X125822002Y-94970000D02*
X125822002Y-97450000D01*
%TO.N,Net-(D1-DOUT)*%
X127902000Y-99860000D02*
X126662000Y-99860000D01*
X128852000Y-96135000D02*
X129777000Y-96135000D01*
X126652000Y-99850000D02*
X126662000Y-99860000D01*
X129792000Y-96120000D02*
X129777000Y-96135000D01*
%TO.N,Net-(D2-DOUT)*%
X128852000Y-98910000D02*
X130032000Y-98910000D01*
X127902000Y-102635000D02*
X126807000Y-102635000D01*
X130032000Y-98910000D02*
X130042000Y-98920000D01*
X126807000Y-102635000D02*
X126692000Y-102520000D01*
%TO.N,Net-(D3-DOUT)*%
X129947000Y-101685000D02*
X130182000Y-101450000D01*
X128852000Y-101685000D02*
X129947000Y-101685000D01*
X126902000Y-105410000D02*
X126882000Y-105390000D01*
X127902000Y-105410000D02*
X126902000Y-105410000D01*
%TO.N,/LS_B*%
X117729000Y-94742000D02*
X113792000Y-94742000D01*
%TO.N,/LS_A*%
X115824000Y-93472000D02*
X113792000Y-93472000D01*
%TD*%
%TA.AperFunction,Conductor*%
%TO.N,/GND*%
G36*
X134501532Y-81813510D02*
G01*
X134504744Y-81813589D01*
X134587603Y-81815643D01*
X134608704Y-81817985D01*
X134779005Y-81851860D01*
X134802254Y-81858912D01*
X134961259Y-81924772D01*
X134982680Y-81936223D01*
X135125769Y-82031829D01*
X135144545Y-82047237D01*
X135266241Y-82168930D01*
X135281656Y-82187714D01*
X135377260Y-82330791D01*
X135388719Y-82352228D01*
X135454574Y-82511206D01*
X135461631Y-82534467D01*
X135495505Y-82704743D01*
X135497851Y-82725895D01*
X135499963Y-82811962D01*
X135500000Y-82815004D01*
X135500000Y-117185031D01*
X135499963Y-117188045D01*
X135497871Y-117274084D01*
X135495525Y-117295263D01*
X135461654Y-117465532D01*
X135454597Y-117488794D01*
X135388740Y-117647779D01*
X135377281Y-117669216D01*
X135281674Y-117812297D01*
X135266254Y-117831087D01*
X135144573Y-117952766D01*
X135125782Y-117968187D01*
X134982694Y-118063794D01*
X134961258Y-118075251D01*
X134802271Y-118141105D01*
X134779010Y-118148160D01*
X134608734Y-118182030D01*
X134587580Y-118184376D01*
X134501510Y-118186485D01*
X134498473Y-118186522D01*
X115533220Y-118186522D01*
X115471220Y-118169909D01*
X115287423Y-118063794D01*
X107827914Y-113757043D01*
X105650652Y-112500000D01*
X109795065Y-112500000D01*
X109814786Y-112826038D01*
X109873667Y-113147341D01*
X109970835Y-113459164D01*
X109970839Y-113459175D01*
X110104897Y-113757041D01*
X110104898Y-113757043D01*
X110273881Y-114036576D01*
X110421476Y-114224968D01*
X110939936Y-113706508D01*
X111133274Y-113706508D01*
X111163722Y-113780017D01*
X111219983Y-113836278D01*
X111293492Y-113866726D01*
X111373056Y-113866726D01*
X111446565Y-113836278D01*
X111502826Y-113780017D01*
X111533274Y-113706508D01*
X111533274Y-113626944D01*
X111502826Y-113553435D01*
X111446565Y-113497174D01*
X111373056Y-113466726D01*
X111293492Y-113466726D01*
X111219983Y-113497174D01*
X111163722Y-113553435D01*
X111133274Y-113626944D01*
X111133274Y-113706508D01*
X110939936Y-113706508D01*
X111563708Y-113082736D01*
X111660967Y-113216602D01*
X111783398Y-113339033D01*
X111917262Y-113436290D01*
X110775030Y-114578522D01*
X110775030Y-114578523D01*
X110963423Y-114726118D01*
X111242956Y-114895101D01*
X111242958Y-114895102D01*
X111540824Y-115029160D01*
X111540835Y-115029164D01*
X111852658Y-115126332D01*
X112173961Y-115185213D01*
X112500000Y-115204934D01*
X112826038Y-115185213D01*
X113147341Y-115126332D01*
X113459164Y-115029164D01*
X113459175Y-115029160D01*
X113757041Y-114895102D01*
X113757043Y-114895101D01*
X114036586Y-114726112D01*
X114224968Y-114578523D01*
X114224968Y-114578522D01*
X113352955Y-113706508D01*
X113466726Y-113706508D01*
X113497174Y-113780017D01*
X113553435Y-113836278D01*
X113626944Y-113866726D01*
X113706508Y-113866726D01*
X113780017Y-113836278D01*
X113836278Y-113780017D01*
X113866726Y-113706508D01*
X113866726Y-113626944D01*
X113836278Y-113553435D01*
X113780017Y-113497174D01*
X113706508Y-113466726D01*
X113626944Y-113466726D01*
X113553435Y-113497174D01*
X113497174Y-113553435D01*
X113466726Y-113626944D01*
X113466726Y-113706508D01*
X113352955Y-113706508D01*
X113082737Y-113436290D01*
X113216602Y-113339033D01*
X113339033Y-113216602D01*
X113436290Y-113082737D01*
X114578522Y-114224968D01*
X114578523Y-114224968D01*
X114726112Y-114036586D01*
X114895101Y-113757043D01*
X114895102Y-113757041D01*
X115029160Y-113459175D01*
X115029164Y-113459164D01*
X115126332Y-113147341D01*
X115185213Y-112826038D01*
X115204934Y-112500000D01*
X115185213Y-112173961D01*
X115126332Y-111852658D01*
X115029164Y-111540835D01*
X115029160Y-111540824D01*
X114895102Y-111242958D01*
X114895101Y-111242956D01*
X114726118Y-110963423D01*
X114578522Y-110775030D01*
X113436290Y-111917262D01*
X113339033Y-111783398D01*
X113216602Y-111660967D01*
X113082736Y-111563709D01*
X113273389Y-111373056D01*
X113466726Y-111373056D01*
X113497174Y-111446565D01*
X113553435Y-111502826D01*
X113626944Y-111533274D01*
X113706508Y-111533274D01*
X113780017Y-111502826D01*
X113836278Y-111446565D01*
X113866726Y-111373056D01*
X113866726Y-111293492D01*
X113836278Y-111219983D01*
X113780017Y-111163722D01*
X113706508Y-111133274D01*
X113626944Y-111133274D01*
X113553435Y-111163722D01*
X113497174Y-111219983D01*
X113466726Y-111293492D01*
X113466726Y-111373056D01*
X113273389Y-111373056D01*
X114224968Y-110421476D01*
X114036576Y-110273881D01*
X113757043Y-110104898D01*
X113757041Y-110104897D01*
X113459175Y-109970839D01*
X113459164Y-109970835D01*
X113147341Y-109873667D01*
X112826038Y-109814786D01*
X112500000Y-109795065D01*
X112173961Y-109814786D01*
X111852658Y-109873667D01*
X111540835Y-109970835D01*
X111540824Y-109970839D01*
X111242958Y-110104897D01*
X111242956Y-110104898D01*
X110963422Y-110273881D01*
X110963416Y-110273886D01*
X110775030Y-110421474D01*
X110775029Y-110421476D01*
X111917262Y-111563709D01*
X111783398Y-111660967D01*
X111660967Y-111783398D01*
X111563709Y-111917262D01*
X111019503Y-111373056D01*
X111133274Y-111373056D01*
X111163722Y-111446565D01*
X111219983Y-111502826D01*
X111293492Y-111533274D01*
X111373056Y-111533274D01*
X111446565Y-111502826D01*
X111502826Y-111446565D01*
X111533274Y-111373056D01*
X111533274Y-111293492D01*
X111502826Y-111219983D01*
X111446565Y-111163722D01*
X111373056Y-111133274D01*
X111293492Y-111133274D01*
X111219983Y-111163722D01*
X111163722Y-111219983D01*
X111133274Y-111293492D01*
X111133274Y-111373056D01*
X111019503Y-111373056D01*
X110421476Y-110775029D01*
X110421474Y-110775030D01*
X110273886Y-110963416D01*
X110273881Y-110963422D01*
X110104898Y-111242956D01*
X110104897Y-111242958D01*
X109970839Y-111540824D01*
X109970835Y-111540835D01*
X109873667Y-111852658D01*
X109814786Y-112173961D01*
X109795065Y-112500000D01*
X105650652Y-112500000D01*
X100501428Y-109527093D01*
X100498608Y-109525415D01*
X100420311Y-109477404D01*
X100402161Y-109463847D01*
X100264511Y-109339913D01*
X100247165Y-109320649D01*
X100139266Y-109172148D01*
X100126306Y-109149703D01*
X100051634Y-108982002D01*
X100043626Y-108957358D01*
X100005112Y-108776200D01*
X100002445Y-108753674D01*
X100000042Y-108661846D01*
X100000000Y-108658603D01*
X100000000Y-107542075D01*
X116585476Y-107542075D01*
X116709462Y-107608348D01*
X116897969Y-107665531D01*
X116897965Y-107665531D01*
X117094000Y-107684838D01*
X117290032Y-107665531D01*
X117478537Y-107608348D01*
X117602523Y-107542076D01*
X117602523Y-107542075D01*
X117094001Y-107033553D01*
X117094000Y-107033553D01*
X116585476Y-107542075D01*
X100000000Y-107542075D01*
X100000000Y-106680000D01*
X116089161Y-106680000D01*
X116108468Y-106876032D01*
X116165651Y-107064537D01*
X116231923Y-107188522D01*
X116740447Y-106680000D01*
X117447553Y-106680000D01*
X117956076Y-107188523D01*
X118022348Y-107064537D01*
X118079531Y-106876032D01*
X118098838Y-106680000D01*
X118079531Y-106483967D01*
X118022348Y-106295462D01*
X117956075Y-106171476D01*
X117447553Y-106679999D01*
X117447553Y-106680000D01*
X116740447Y-106680000D01*
X116231923Y-106171476D01*
X116165649Y-106295466D01*
X116108468Y-106483967D01*
X116089161Y-106680000D01*
X100000000Y-106680000D01*
X100000000Y-106253025D01*
X100000147Y-106246989D01*
X100000363Y-106242548D01*
X100001352Y-106222261D01*
X100010642Y-106180856D01*
X100030659Y-106132529D01*
X100057534Y-106092308D01*
X100092308Y-106057534D01*
X100132529Y-106030659D01*
X100180856Y-106010642D01*
X100222261Y-106001352D01*
X100241421Y-106000418D01*
X100246990Y-106000147D01*
X100253026Y-106000000D01*
X104500015Y-106000000D01*
X104551275Y-105998564D01*
X104578623Y-105997799D01*
X104731927Y-105962809D01*
X104873601Y-105894582D01*
X104969729Y-105817923D01*
X116585476Y-105817923D01*
X117094000Y-106326447D01*
X117094001Y-106326447D01*
X117602522Y-105817923D01*
X117478537Y-105751651D01*
X117290030Y-105694468D01*
X117290034Y-105694468D01*
X117094000Y-105675161D01*
X116897967Y-105694468D01*
X116709466Y-105751649D01*
X116585476Y-105817923D01*
X104969729Y-105817923D01*
X104996541Y-105796541D01*
X105094582Y-105673601D01*
X105162809Y-105531927D01*
X105197799Y-105378623D01*
X105200000Y-105300000D01*
X105197799Y-105221377D01*
X105162809Y-105068073D01*
X105149530Y-105040500D01*
X105094583Y-104926401D01*
X105094582Y-104926400D01*
X105094582Y-104926399D01*
X104996541Y-104803459D01*
X104873601Y-104705418D01*
X104873599Y-104705417D01*
X104873598Y-104705416D01*
X104731927Y-104637190D01*
X104578625Y-104602201D01*
X104578615Y-104602200D01*
X104500015Y-104600000D01*
X104500000Y-104600000D01*
X104389804Y-104600000D01*
X104322765Y-104580315D01*
X104277010Y-104527511D01*
X104265807Y-104476862D01*
X104264484Y-104286587D01*
X104260757Y-103750362D01*
X104279975Y-103683187D01*
X104332460Y-103637066D01*
X104384754Y-103625500D01*
X106939713Y-103625500D01*
X107006752Y-103645185D01*
X107052507Y-103697989D01*
X107062451Y-103767147D01*
X107033426Y-103830703D01*
X106991225Y-103862294D01*
X106962917Y-103875221D01*
X106962907Y-103875226D01*
X106962905Y-103875228D01*
X106951952Y-103882267D01*
X106841866Y-103953013D01*
X106841862Y-103953016D01*
X106733225Y-104047150D01*
X106733206Y-104047167D01*
X106733205Y-104047169D01*
X106638984Y-104155907D01*
X106638982Y-104155909D01*
X106638982Y-104155910D01*
X106638980Y-104155913D01*
X106561254Y-104276855D01*
X106561251Y-104276861D01*
X106501482Y-104407739D01*
X106460976Y-104545689D01*
X106460973Y-104545701D01*
X106440499Y-104688108D01*
X106440499Y-105260000D01*
X106445643Y-105331938D01*
X106486181Y-105469992D01*
X106563966Y-105591028D01*
X106563970Y-105591032D01*
X106659259Y-105673601D01*
X106672705Y-105685252D01*
X106713173Y-105703733D01*
X106803579Y-105745021D01*
X106803582Y-105745021D01*
X106803583Y-105745022D01*
X106945999Y-105765498D01*
X106946002Y-105765498D01*
X107481763Y-105765498D01*
X107981762Y-105765498D01*
X108445999Y-105765498D01*
X108517939Y-105760353D01*
X108655991Y-105719817D01*
X108777031Y-105642029D01*
X108871253Y-105533292D01*
X108905644Y-105457987D01*
X108951398Y-105405183D01*
X109018438Y-105385498D01*
X109912890Y-105385498D01*
X109979929Y-105405183D01*
X110006320Y-105430105D01*
X110007119Y-105429387D01*
X110138129Y-105574888D01*
X110291265Y-105686148D01*
X110291270Y-105686151D01*
X110464192Y-105763142D01*
X110464197Y-105763144D01*
X110649354Y-105802500D01*
X110649355Y-105802500D01*
X110838644Y-105802500D01*
X110838646Y-105802500D01*
X111023803Y-105763144D01*
X111196730Y-105686151D01*
X111349871Y-105574888D01*
X111476533Y-105434216D01*
X111571179Y-105270284D01*
X111629674Y-105090256D01*
X111649460Y-104902000D01*
X111649460Y-104901997D01*
X111649460Y-104895502D01*
X111650782Y-104895502D01*
X111662076Y-104833735D01*
X111709807Y-104782710D01*
X111772829Y-104765500D01*
X113088252Y-104765500D01*
X113155291Y-104785185D01*
X113180400Y-104806526D01*
X113186126Y-104812885D01*
X113186130Y-104812889D01*
X113339265Y-104924148D01*
X113339270Y-104924151D01*
X113512192Y-105001142D01*
X113512197Y-105001144D01*
X113697354Y-105040500D01*
X113697355Y-105040500D01*
X113886644Y-105040500D01*
X113886646Y-105040500D01*
X114071803Y-105001144D01*
X114244730Y-104924151D01*
X114255698Y-104916181D01*
X114321504Y-104892702D01*
X114328584Y-104892500D01*
X114984397Y-104892500D01*
X115051436Y-104912185D01*
X115080250Y-104937835D01*
X115113116Y-104977883D01*
X115265460Y-105102909D01*
X115265467Y-105102913D01*
X115439266Y-105195811D01*
X115439269Y-105195811D01*
X115439273Y-105195814D01*
X115627868Y-105253024D01*
X115824000Y-105272341D01*
X116020132Y-105253024D01*
X116208727Y-105195814D01*
X116382538Y-105102910D01*
X116534883Y-104977883D01*
X116659910Y-104825538D01*
X116728423Y-104697360D01*
X116752811Y-104651733D01*
X116752811Y-104651732D01*
X116752814Y-104651727D01*
X116810024Y-104463132D01*
X116829341Y-104267000D01*
X116810024Y-104070868D01*
X116752814Y-103882273D01*
X116749049Y-103875229D01*
X116711486Y-103804953D01*
X116697244Y-103736551D01*
X116722244Y-103671307D01*
X116778549Y-103629936D01*
X116820844Y-103622500D01*
X116889397Y-103622500D01*
X116956436Y-103642185D01*
X116985250Y-103667835D01*
X117018116Y-103707883D01*
X117170460Y-103832909D01*
X117170467Y-103832913D01*
X117344266Y-103925811D01*
X117344269Y-103925811D01*
X117344273Y-103925814D01*
X117532868Y-103983024D01*
X117729000Y-104002341D01*
X117925132Y-103983024D01*
X118113727Y-103925814D01*
X118287538Y-103832910D01*
X118439883Y-103707883D01*
X118564910Y-103555538D01*
X118636050Y-103422444D01*
X118657811Y-103381733D01*
X118657811Y-103381732D01*
X118657814Y-103381727D01*
X118715024Y-103193132D01*
X118734341Y-102997000D01*
X118715024Y-102800868D01*
X118657814Y-102612273D01*
X118657811Y-102612269D01*
X118657811Y-102612266D01*
X118564913Y-102438467D01*
X118564909Y-102438460D01*
X118439883Y-102286116D01*
X118287539Y-102161090D01*
X118287532Y-102161086D01*
X118113733Y-102068188D01*
X118113727Y-102068186D01*
X117925132Y-102010976D01*
X117925129Y-102010975D01*
X117729000Y-101991659D01*
X117532870Y-102010975D01*
X117344266Y-102068188D01*
X117170467Y-102161086D01*
X117170460Y-102161090D01*
X117018116Y-102286116D01*
X116985250Y-102326165D01*
X116927505Y-102365499D01*
X116889397Y-102371500D01*
X116820844Y-102371500D01*
X116753805Y-102351815D01*
X116708050Y-102299011D01*
X116698106Y-102229853D01*
X116711486Y-102189047D01*
X116752811Y-102111732D01*
X116752814Y-102111727D01*
X116810024Y-101923132D01*
X116829341Y-101727000D01*
X116810024Y-101530868D01*
X116752814Y-101342273D01*
X116726429Y-101292910D01*
X116711486Y-101264953D01*
X116697244Y-101196551D01*
X116722244Y-101131307D01*
X116778549Y-101089936D01*
X116820844Y-101082500D01*
X116889397Y-101082500D01*
X116956436Y-101102185D01*
X116985250Y-101127835D01*
X117018116Y-101167883D01*
X117170460Y-101292909D01*
X117170467Y-101292913D01*
X117344266Y-101385811D01*
X117344269Y-101385811D01*
X117344273Y-101385814D01*
X117532868Y-101443024D01*
X117729000Y-101462341D01*
X117925132Y-101443024D01*
X118113727Y-101385814D01*
X118287538Y-101292910D01*
X118439883Y-101167883D01*
X118564910Y-101015538D01*
X118657814Y-100841727D01*
X118715024Y-100653132D01*
X118734341Y-100457000D01*
X118715024Y-100260868D01*
X118657814Y-100072273D01*
X118657811Y-100072269D01*
X118657811Y-100072266D01*
X118564913Y-99898467D01*
X118564909Y-99898460D01*
X118439883Y-99746116D01*
X118287539Y-99621090D01*
X118287532Y-99621086D01*
X118113733Y-99528188D01*
X118113727Y-99528186D01*
X117957563Y-99480814D01*
X117925129Y-99470975D01*
X117729000Y-99451659D01*
X117532870Y-99470975D01*
X117344266Y-99528188D01*
X117170467Y-99621086D01*
X117170460Y-99621090D01*
X117018116Y-99746116D01*
X116985250Y-99786165D01*
X116927505Y-99825499D01*
X116889397Y-99831500D01*
X114610099Y-99831500D01*
X114543060Y-99811815D01*
X114517949Y-99790472D01*
X114436596Y-99700121D01*
X114397871Y-99657112D01*
X114397870Y-99657111D01*
X114239473Y-99542029D01*
X114241028Y-99539888D01*
X114200921Y-99497840D01*
X114187685Y-99429235D01*
X114213642Y-99364366D01*
X114240370Y-99341205D01*
X114239473Y-99339971D01*
X114384641Y-99234500D01*
X114397871Y-99224888D01*
X114400788Y-99221647D01*
X114403600Y-99218526D01*
X114463087Y-99181879D01*
X114495748Y-99177500D01*
X114984397Y-99177500D01*
X115051436Y-99197185D01*
X115080250Y-99222835D01*
X115113116Y-99262883D01*
X115265460Y-99387909D01*
X115265467Y-99387913D01*
X115439266Y-99480811D01*
X115439269Y-99480811D01*
X115439273Y-99480814D01*
X115627868Y-99538024D01*
X115824000Y-99557341D01*
X116020132Y-99538024D01*
X116208727Y-99480814D01*
X116227135Y-99470975D01*
X116305224Y-99429235D01*
X116382538Y-99387910D01*
X116534883Y-99262883D01*
X116659910Y-99110538D01*
X116752814Y-98936727D01*
X116810024Y-98748132D01*
X116829341Y-98552000D01*
X116810024Y-98355868D01*
X116752814Y-98167273D01*
X116735297Y-98134501D01*
X116711486Y-98089953D01*
X116697244Y-98021551D01*
X116722244Y-97956307D01*
X116778549Y-97914936D01*
X116820844Y-97907500D01*
X116889397Y-97907500D01*
X116956436Y-97927185D01*
X116985250Y-97952835D01*
X117018116Y-97992883D01*
X117170460Y-98117909D01*
X117170467Y-98117913D01*
X117344266Y-98210811D01*
X117344269Y-98210811D01*
X117344273Y-98210814D01*
X117532868Y-98268024D01*
X117729000Y-98287341D01*
X117925132Y-98268024D01*
X118113727Y-98210814D01*
X118150419Y-98191202D01*
X118253973Y-98135851D01*
X118287538Y-98117910D01*
X118439883Y-97992883D01*
X118564910Y-97840538D01*
X118634417Y-97710499D01*
X118657811Y-97666733D01*
X118657811Y-97666732D01*
X118657814Y-97666727D01*
X118715024Y-97478132D01*
X118734341Y-97282000D01*
X118715024Y-97085868D01*
X118657814Y-96897273D01*
X118657811Y-96897269D01*
X118657811Y-96897266D01*
X118564913Y-96723467D01*
X118564909Y-96723460D01*
X118439883Y-96571116D01*
X118287539Y-96446090D01*
X118287532Y-96446086D01*
X118113733Y-96353188D01*
X118113727Y-96353186D01*
X117925132Y-96295976D01*
X117925129Y-96295975D01*
X117729000Y-96276659D01*
X117532870Y-96295975D01*
X117344266Y-96353188D01*
X117170467Y-96446086D01*
X117170460Y-96446090D01*
X117018116Y-96571116D01*
X116985250Y-96611165D01*
X116927505Y-96650499D01*
X116889397Y-96656500D01*
X116820844Y-96656500D01*
X116753805Y-96636815D01*
X116708050Y-96584011D01*
X116698106Y-96514853D01*
X116711486Y-96474047D01*
X116752811Y-96396732D01*
X116752814Y-96396727D01*
X116810024Y-96208132D01*
X116829341Y-96012000D01*
X116810024Y-95815868D01*
X116752814Y-95627273D01*
X116739725Y-95602785D01*
X116711486Y-95549953D01*
X116697244Y-95481551D01*
X116722244Y-95416307D01*
X116778549Y-95374936D01*
X116820844Y-95367500D01*
X116889397Y-95367500D01*
X116956436Y-95387185D01*
X116985250Y-95412835D01*
X117018116Y-95452883D01*
X117170460Y-95577909D01*
X117170467Y-95577913D01*
X117344266Y-95670811D01*
X117344269Y-95670811D01*
X117344273Y-95670814D01*
X117532868Y-95728024D01*
X117729000Y-95747341D01*
X117925132Y-95728024D01*
X118113727Y-95670814D01*
X118287538Y-95577910D01*
X118439883Y-95452883D01*
X118564910Y-95300538D01*
X118657814Y-95126727D01*
X118715024Y-94938132D01*
X118734341Y-94742000D01*
X118715024Y-94545868D01*
X118657814Y-94357273D01*
X118657811Y-94357269D01*
X118657811Y-94357266D01*
X118564913Y-94183467D01*
X118564909Y-94183460D01*
X118439883Y-94031116D01*
X118287539Y-93906090D01*
X118287532Y-93906086D01*
X118113733Y-93813188D01*
X118113727Y-93813186D01*
X117925132Y-93755976D01*
X117925129Y-93755975D01*
X117729000Y-93736659D01*
X117532870Y-93755975D01*
X117344266Y-93813188D01*
X117170467Y-93906086D01*
X117170460Y-93906090D01*
X117018116Y-94031116D01*
X116985250Y-94071165D01*
X116927505Y-94110499D01*
X116889397Y-94116500D01*
X116820844Y-94116500D01*
X116753805Y-94096815D01*
X116708050Y-94044011D01*
X116698106Y-93974853D01*
X116711486Y-93934047D01*
X116752811Y-93856732D01*
X116752814Y-93856727D01*
X116810024Y-93668132D01*
X116829341Y-93472000D01*
X116810024Y-93275868D01*
X116752814Y-93087273D01*
X116752811Y-93087269D01*
X116752811Y-93087266D01*
X116659913Y-92913467D01*
X116659909Y-92913460D01*
X116534883Y-92761116D01*
X116382539Y-92636090D01*
X116382532Y-92636086D01*
X116208733Y-92543188D01*
X116208727Y-92543186D01*
X116020132Y-92485976D01*
X116020129Y-92485975D01*
X115824000Y-92466659D01*
X115823359Y-92466659D01*
X115823035Y-92466564D01*
X115817938Y-92466062D01*
X115818033Y-92465095D01*
X115756320Y-92446974D01*
X115710565Y-92394170D01*
X115700038Y-92329700D01*
X115711321Y-92222344D01*
X115737904Y-92157735D01*
X115746962Y-92147627D01*
X115792774Y-92101817D01*
X115854098Y-92068333D01*
X115880453Y-92065500D01*
X116254397Y-92065500D01*
X116321436Y-92085185D01*
X116350250Y-92110835D01*
X116383116Y-92150883D01*
X116535460Y-92275909D01*
X116535467Y-92275913D01*
X116709266Y-92368811D01*
X116709269Y-92368811D01*
X116709273Y-92368814D01*
X116897868Y-92426024D01*
X117094000Y-92445341D01*
X117290132Y-92426024D01*
X117478727Y-92368814D01*
X117652538Y-92275910D01*
X117804883Y-92150883D01*
X117929910Y-91998538D01*
X118022814Y-91824727D01*
X118080024Y-91636132D01*
X118099341Y-91440000D01*
X118080024Y-91243868D01*
X118022814Y-91055273D01*
X118022811Y-91055269D01*
X118022811Y-91055266D01*
X117929913Y-90881467D01*
X117929909Y-90881460D01*
X117816946Y-90743816D01*
X117789633Y-90679506D01*
X117801424Y-90610639D01*
X117825115Y-90577474D01*
X118332771Y-90069819D01*
X118394094Y-90036334D01*
X118420452Y-90033500D01*
X123248252Y-90033500D01*
X123315291Y-90053185D01*
X123340400Y-90074526D01*
X123346126Y-90080885D01*
X123346130Y-90080889D01*
X123499265Y-90192148D01*
X123499270Y-90192151D01*
X123672192Y-90269142D01*
X123672197Y-90269144D01*
X123857354Y-90308500D01*
X123857355Y-90308500D01*
X124046644Y-90308500D01*
X124046646Y-90308500D01*
X124231803Y-90269144D01*
X124404730Y-90192151D01*
X124557871Y-90080888D01*
X124684533Y-89940216D01*
X124779179Y-89776284D01*
X124837674Y-89596256D01*
X124857460Y-89408000D01*
X124837674Y-89219744D01*
X124834806Y-89210919D01*
X124830550Y-89197817D01*
X124828555Y-89127976D01*
X124864636Y-89068144D01*
X124927337Y-89037316D01*
X124948481Y-89035500D01*
X127582504Y-89035500D01*
X127649543Y-89055185D01*
X127695298Y-89107989D01*
X127706504Y-89159500D01*
X127706504Y-89606399D01*
X127686819Y-89673438D01*
X127634016Y-89719193D01*
X127598922Y-89735219D01*
X127598912Y-89735224D01*
X127598910Y-89735226D01*
X127598904Y-89735230D01*
X127477871Y-89813011D01*
X127477867Y-89813014D01*
X127369230Y-89907148D01*
X127369211Y-89907165D01*
X127369209Y-89907168D01*
X127352047Y-89926973D01*
X127274989Y-90015905D01*
X127274987Y-90015907D01*
X127274987Y-90015908D01*
X127274985Y-90015911D01*
X127197259Y-90136853D01*
X127197256Y-90136859D01*
X127137487Y-90267737D01*
X127096981Y-90405687D01*
X127096978Y-90405699D01*
X127076504Y-90548106D01*
X127076504Y-90923571D01*
X127056819Y-90990610D01*
X127004015Y-91036365D01*
X126934857Y-91046309D01*
X126871301Y-91017284D01*
X126845297Y-90994751D01*
X126845296Y-90994750D01*
X126836231Y-90990610D01*
X126714421Y-90934980D01*
X126714416Y-90934979D01*
X126572002Y-90914504D01*
X126107765Y-90914504D01*
X126036238Y-90914504D01*
X125607766Y-90914504D01*
X125536239Y-90914504D01*
X125072002Y-90914504D01*
X125071999Y-90914504D01*
X125000061Y-90919648D01*
X124862007Y-90960186D01*
X124740971Y-91037971D01*
X124740967Y-91037975D01*
X124646752Y-91146704D01*
X124646746Y-91146713D01*
X124586978Y-91277584D01*
X124586977Y-91277589D01*
X124566502Y-91420003D01*
X124566502Y-91991893D01*
X124586976Y-92134300D01*
X124586977Y-92134304D01*
X124586978Y-92134308D01*
X124627485Y-92272263D01*
X124629151Y-92275910D01*
X124687254Y-92403140D01*
X124687255Y-92403142D01*
X124761378Y-92518480D01*
X124762198Y-92519921D01*
X124764990Y-92524102D01*
X124859209Y-92632834D01*
X124859212Y-92632837D01*
X124967866Y-92726985D01*
X124967869Y-92726988D01*
X124967871Y-92726989D01*
X124967872Y-92726990D01*
X125088908Y-92804774D01*
X125124012Y-92820805D01*
X125176817Y-92866560D01*
X125196502Y-92933599D01*
X125196502Y-103115893D01*
X125194120Y-103140083D01*
X125186500Y-103178394D01*
X125186500Y-103301611D01*
X125210535Y-103422444D01*
X125210540Y-103422461D01*
X125257685Y-103536281D01*
X125257690Y-103536290D01*
X125326139Y-103638727D01*
X125326145Y-103638735D01*
X126253754Y-104566345D01*
X126287239Y-104627668D01*
X126282255Y-104697360D01*
X126258223Y-104736998D01*
X126149466Y-104857785D01*
X126054821Y-105021715D01*
X126054818Y-105021722D01*
X125996327Y-105201740D01*
X125996326Y-105201744D01*
X125976540Y-105390000D01*
X125996326Y-105578256D01*
X125996327Y-105578259D01*
X126054818Y-105758277D01*
X126054821Y-105758284D01*
X126149467Y-105922216D01*
X126229824Y-106011461D01*
X126276129Y-106062888D01*
X126429265Y-106174148D01*
X126429270Y-106174151D01*
X126602192Y-106251142D01*
X126602197Y-106251144D01*
X126787354Y-106290500D01*
X126787355Y-106290500D01*
X126976644Y-106290500D01*
X126976646Y-106290500D01*
X127161803Y-106251144D01*
X127334730Y-106174151D01*
X127339064Y-106171001D01*
X127404866Y-106147519D01*
X127455287Y-106155134D01*
X127456967Y-106155761D01*
X127519511Y-106179089D01*
X127519517Y-106179091D01*
X127579127Y-106185500D01*
X128224872Y-106185499D01*
X128284483Y-106179091D01*
X128333665Y-106160746D01*
X128403355Y-106155761D01*
X128420333Y-106160747D01*
X128469508Y-106179088D01*
X128469511Y-106179089D01*
X128469517Y-106179091D01*
X128529127Y-106185500D01*
X129174872Y-106185499D01*
X129234483Y-106179091D01*
X129369331Y-106128796D01*
X129457373Y-106062888D01*
X129460920Y-106060233D01*
X129526385Y-106035816D01*
X129535231Y-106035500D01*
X131813607Y-106035500D01*
X131874029Y-106023481D01*
X131934452Y-106011463D01*
X131934455Y-106011461D01*
X131934458Y-106011461D01*
X131967787Y-105997654D01*
X131967786Y-105997654D01*
X131967792Y-105997652D01*
X132048286Y-105964312D01*
X132103630Y-105927331D01*
X132150733Y-105895858D01*
X132237858Y-105808733D01*
X132237859Y-105808731D01*
X132244925Y-105801665D01*
X132244928Y-105801661D01*
X133030729Y-105015860D01*
X133030733Y-105015858D01*
X133117858Y-104928733D01*
X133148584Y-104882746D01*
X133169254Y-104851813D01*
X133169256Y-104851810D01*
X133186310Y-104826288D01*
X133186314Y-104826280D01*
X133216726Y-104752859D01*
X133216726Y-104752858D01*
X133218663Y-104748181D01*
X133233463Y-104712452D01*
X133257500Y-104591606D01*
X133257500Y-101148394D01*
X133257500Y-98558394D01*
X133257500Y-98558393D01*
X133257500Y-95858394D01*
X133257500Y-95858393D01*
X133257500Y-93568396D01*
X133233463Y-93447550D01*
X133195020Y-93354741D01*
X133186312Y-93333718D01*
X133186307Y-93333709D01*
X133117859Y-93231270D01*
X133117858Y-93231269D01*
X133030733Y-93144144D01*
X133030732Y-93144143D01*
X132178150Y-92291562D01*
X132144666Y-92230240D01*
X132146855Y-92168946D01*
X132153115Y-92147627D01*
X132157026Y-92134308D01*
X132177502Y-91991893D01*
X132177502Y-91420004D01*
X132172357Y-91348064D01*
X132161398Y-91310741D01*
X132157636Y-91258157D01*
X132159690Y-91243870D01*
X132177500Y-91120000D01*
X132177500Y-90548111D01*
X132157024Y-90405696D01*
X132116517Y-90267741D01*
X132056747Y-90136863D01*
X132056744Y-90136859D01*
X131982623Y-90021523D01*
X131981802Y-90020081D01*
X131979011Y-90015901D01*
X131884792Y-89907169D01*
X131884789Y-89907166D01*
X131776135Y-89813018D01*
X131776132Y-89813015D01*
X131731748Y-89784492D01*
X131685993Y-89731688D01*
X131676049Y-89662530D01*
X131680857Y-89641856D01*
X131692378Y-89606399D01*
X131695674Y-89596256D01*
X131715460Y-89408000D01*
X131695674Y-89219744D01*
X131637179Y-89039716D01*
X131542533Y-88875784D01*
X131415871Y-88735112D01*
X131376501Y-88706508D01*
X131262734Y-88623851D01*
X131262729Y-88623848D01*
X131089807Y-88546857D01*
X131089802Y-88546855D01*
X130944001Y-88515865D01*
X130904646Y-88507500D01*
X130715354Y-88507500D01*
X130682897Y-88514398D01*
X130530197Y-88546855D01*
X130530192Y-88546857D01*
X130357270Y-88623848D01*
X130357265Y-88623851D01*
X130204129Y-88735111D01*
X130077466Y-88875785D01*
X129982821Y-89039715D01*
X129982818Y-89039722D01*
X129924327Y-89219740D01*
X129924326Y-89219744D01*
X129904540Y-89408000D01*
X129924326Y-89596256D01*
X129924327Y-89596259D01*
X129984829Y-89782465D01*
X129982647Y-89783173D01*
X129990534Y-89842010D01*
X129960903Y-89905286D01*
X129959486Y-89906848D01*
X129959210Y-89907167D01*
X129959209Y-89907168D01*
X129959206Y-89907171D01*
X129864985Y-90015909D01*
X129864983Y-90015911D01*
X129864983Y-90015912D01*
X129864981Y-90015915D01*
X129787255Y-90136857D01*
X129787249Y-90136869D01*
X129739796Y-90240777D01*
X129694041Y-90293581D01*
X129627001Y-90313265D01*
X129559962Y-90293580D01*
X129514209Y-90240779D01*
X129466751Y-90136859D01*
X129430781Y-90080889D01*
X129392627Y-90021519D01*
X129391806Y-90020077D01*
X129389015Y-90015897D01*
X129294796Y-89907165D01*
X129294793Y-89907162D01*
X129186139Y-89813014D01*
X129186136Y-89813011D01*
X129128986Y-89776284D01*
X129065098Y-89735226D01*
X129065091Y-89735223D01*
X129065085Y-89735219D01*
X129029992Y-89719193D01*
X128977188Y-89673438D01*
X128957504Y-89606399D01*
X128957504Y-89007745D01*
X128957505Y-89007724D01*
X128957505Y-88872557D01*
X128957500Y-88872451D01*
X128957500Y-88588393D01*
X128957499Y-88588389D01*
X128949238Y-88546855D01*
X128933463Y-88467548D01*
X128886311Y-88353714D01*
X128886310Y-88353713D01*
X128886307Y-88353707D01*
X128817858Y-88251267D01*
X128817855Y-88251263D01*
X128727637Y-88161045D01*
X128727606Y-88161016D01*
X128582198Y-88015608D01*
X128582178Y-88015586D01*
X128490733Y-87924141D01*
X128439509Y-87889915D01*
X128388287Y-87855689D01*
X128388286Y-87855688D01*
X128388283Y-87855686D01*
X128388280Y-87855685D01*
X128307792Y-87822347D01*
X128274453Y-87808537D01*
X128264427Y-87806543D01*
X128214029Y-87796518D01*
X128153610Y-87784500D01*
X128153607Y-87784500D01*
X128153606Y-87784500D01*
X117137607Y-87784500D01*
X117014393Y-87784500D01*
X117014389Y-87784500D01*
X116953971Y-87796518D01*
X116893548Y-87808537D01*
X116893543Y-87808538D01*
X116860207Y-87822347D01*
X116846397Y-87828067D01*
X116824169Y-87837274D01*
X116779713Y-87855688D01*
X116769557Y-87862475D01*
X116769449Y-87862547D01*
X116677268Y-87924140D01*
X116633705Y-87967703D01*
X116590142Y-88011267D01*
X116590139Y-88011270D01*
X112211154Y-92390256D01*
X107863229Y-96738181D01*
X107801906Y-96771666D01*
X107775548Y-96774500D01*
X105814092Y-96774500D01*
X105789901Y-96772117D01*
X105774056Y-96768965D01*
X105751608Y-96764500D01*
X105751607Y-96764500D01*
X105628393Y-96764500D01*
X105628392Y-96764500D01*
X105605943Y-96768965D01*
X105590098Y-96772117D01*
X105565908Y-96774500D01*
X104335407Y-96774500D01*
X104268368Y-96754815D01*
X104222613Y-96702011D01*
X104211410Y-96651362D01*
X104209124Y-96322539D01*
X104203579Y-95524861D01*
X104222797Y-95457687D01*
X104275282Y-95411566D01*
X104327576Y-95400000D01*
X104500015Y-95400000D01*
X104551275Y-95398564D01*
X104578623Y-95397799D01*
X104731927Y-95362809D01*
X104873601Y-95294582D01*
X104996541Y-95196541D01*
X105094582Y-95073601D01*
X105162809Y-94931927D01*
X105197799Y-94778623D01*
X105200000Y-94700000D01*
X105199605Y-94685906D01*
X105197799Y-94621384D01*
X105197799Y-94621377D01*
X105162809Y-94468073D01*
X105124372Y-94388259D01*
X105094583Y-94326401D01*
X105094582Y-94326400D01*
X105094582Y-94326399D01*
X104996541Y-94203459D01*
X104873601Y-94105418D01*
X104873599Y-94105417D01*
X104873598Y-94105416D01*
X104731927Y-94037190D01*
X104578625Y-94002201D01*
X104578615Y-94002200D01*
X104500015Y-94000000D01*
X104500000Y-94000000D01*
X100253026Y-94000000D01*
X100246986Y-93999853D01*
X100237667Y-93999398D01*
X100222260Y-93998647D01*
X100180850Y-93989355D01*
X100132533Y-93969342D01*
X100092305Y-93942462D01*
X100057537Y-93907694D01*
X100030657Y-93867466D01*
X100026211Y-93856732D01*
X100010642Y-93819145D01*
X100001352Y-93777737D01*
X100000434Y-93758906D01*
X100000147Y-93753010D01*
X100000000Y-93746974D01*
X100000000Y-91341352D01*
X100000041Y-91338159D01*
X100000048Y-91337880D01*
X100002406Y-91246341D01*
X100005074Y-91223767D01*
X100043585Y-91042625D01*
X100051596Y-91017975D01*
X100061937Y-90994751D01*
X100126273Y-90850266D01*
X100139232Y-90827825D01*
X100247139Y-90679315D01*
X100264485Y-90660052D01*
X100402126Y-90536127D01*
X100420298Y-90522557D01*
X100498688Y-90474528D01*
X100501352Y-90472943D01*
X105650639Y-87500000D01*
X109795065Y-87500000D01*
X109814786Y-87826038D01*
X109873667Y-88147341D01*
X109970835Y-88459164D01*
X109970839Y-88459175D01*
X110104897Y-88757041D01*
X110104898Y-88757043D01*
X110273881Y-89036576D01*
X110421476Y-89224968D01*
X110939936Y-88706508D01*
X111133274Y-88706508D01*
X111163722Y-88780017D01*
X111219983Y-88836278D01*
X111293492Y-88866726D01*
X111373056Y-88866726D01*
X111446565Y-88836278D01*
X111502826Y-88780017D01*
X111533274Y-88706508D01*
X111533274Y-88626944D01*
X111502826Y-88553435D01*
X111446565Y-88497174D01*
X111373056Y-88466726D01*
X111293492Y-88466726D01*
X111219983Y-88497174D01*
X111163722Y-88553435D01*
X111133274Y-88626944D01*
X111133274Y-88706508D01*
X110939936Y-88706508D01*
X111563708Y-88082736D01*
X111660967Y-88216602D01*
X111783398Y-88339033D01*
X111917262Y-88436290D01*
X110775030Y-89578522D01*
X110775030Y-89578523D01*
X110963423Y-89726118D01*
X111242956Y-89895101D01*
X111242958Y-89895102D01*
X111540824Y-90029160D01*
X111540835Y-90029164D01*
X111852658Y-90126332D01*
X112173961Y-90185213D01*
X112500000Y-90204934D01*
X112826038Y-90185213D01*
X113147341Y-90126332D01*
X113459164Y-90029164D01*
X113459175Y-90029160D01*
X113757041Y-89895102D01*
X113757043Y-89895101D01*
X114036586Y-89726112D01*
X114224968Y-89578523D01*
X114224968Y-89578522D01*
X113352955Y-88706508D01*
X113466726Y-88706508D01*
X113497174Y-88780017D01*
X113553435Y-88836278D01*
X113626944Y-88866726D01*
X113706508Y-88866726D01*
X113780017Y-88836278D01*
X113836278Y-88780017D01*
X113866726Y-88706508D01*
X113866726Y-88626944D01*
X113836278Y-88553435D01*
X113780017Y-88497174D01*
X113706508Y-88466726D01*
X113626944Y-88466726D01*
X113553435Y-88497174D01*
X113497174Y-88553435D01*
X113466726Y-88626944D01*
X113466726Y-88706508D01*
X113352955Y-88706508D01*
X113082737Y-88436290D01*
X113216602Y-88339033D01*
X113339033Y-88216602D01*
X113436290Y-88082737D01*
X114578522Y-89224968D01*
X114578523Y-89224968D01*
X114726112Y-89036586D01*
X114895101Y-88757043D01*
X114895102Y-88757041D01*
X115029160Y-88459175D01*
X115029164Y-88459164D01*
X115126332Y-88147341D01*
X115185213Y-87826038D01*
X115204934Y-87500000D01*
X115185213Y-87173961D01*
X115126332Y-86852658D01*
X115029164Y-86540835D01*
X115029160Y-86540824D01*
X114895102Y-86242958D01*
X114895101Y-86242956D01*
X114726118Y-85963423D01*
X114578522Y-85775030D01*
X113436290Y-86917262D01*
X113339033Y-86783398D01*
X113216602Y-86660967D01*
X113082736Y-86563709D01*
X113273389Y-86373056D01*
X113466726Y-86373056D01*
X113497174Y-86446565D01*
X113553435Y-86502826D01*
X113626944Y-86533274D01*
X113706508Y-86533274D01*
X113780017Y-86502826D01*
X113836278Y-86446565D01*
X113866726Y-86373056D01*
X113866726Y-86293492D01*
X113836278Y-86219983D01*
X113780017Y-86163722D01*
X113706508Y-86133274D01*
X113626944Y-86133274D01*
X113553435Y-86163722D01*
X113497174Y-86219983D01*
X113466726Y-86293492D01*
X113466726Y-86373056D01*
X113273389Y-86373056D01*
X114224968Y-85421476D01*
X114036576Y-85273881D01*
X113757043Y-85104898D01*
X113757041Y-85104897D01*
X113459175Y-84970839D01*
X113459164Y-84970835D01*
X113147341Y-84873667D01*
X112826038Y-84814786D01*
X112500000Y-84795065D01*
X112173961Y-84814786D01*
X111852658Y-84873667D01*
X111540835Y-84970835D01*
X111540824Y-84970839D01*
X111242958Y-85104897D01*
X111242956Y-85104898D01*
X110963422Y-85273881D01*
X110963416Y-85273886D01*
X110775030Y-85421474D01*
X110775029Y-85421476D01*
X111917262Y-86563709D01*
X111783398Y-86660967D01*
X111660967Y-86783398D01*
X111563709Y-86917262D01*
X111019503Y-86373056D01*
X111133274Y-86373056D01*
X111163722Y-86446565D01*
X111219983Y-86502826D01*
X111293492Y-86533274D01*
X111373056Y-86533274D01*
X111446565Y-86502826D01*
X111502826Y-86446565D01*
X111533274Y-86373056D01*
X111533274Y-86293492D01*
X111502826Y-86219983D01*
X111446565Y-86163722D01*
X111373056Y-86133274D01*
X111293492Y-86133274D01*
X111219983Y-86163722D01*
X111163722Y-86219983D01*
X111133274Y-86293492D01*
X111133274Y-86373056D01*
X111019503Y-86373056D01*
X110421476Y-85775029D01*
X110421474Y-85775030D01*
X110273886Y-85963416D01*
X110273881Y-85963422D01*
X110104898Y-86242956D01*
X110104897Y-86242958D01*
X109970839Y-86540824D01*
X109970835Y-86540835D01*
X109873667Y-86852658D01*
X109814786Y-87173961D01*
X109795065Y-87500000D01*
X105650639Y-87500000D01*
X115471220Y-81830084D01*
X115533220Y-81813472D01*
X134498461Y-81813472D01*
X134501532Y-81813510D01*
G37*
%TD.AperFunction*%
%TA.AperFunction,Conductor*%
G36*
X108691547Y-101458712D02*
G01*
X108742037Y-101489322D01*
X109824064Y-102571349D01*
X109857549Y-102632672D01*
X109857652Y-102675138D01*
X109859005Y-102675281D01*
X109842703Y-102830390D01*
X109816119Y-102895005D01*
X109758822Y-102934990D01*
X109689003Y-102937650D01*
X109631701Y-102905110D01*
X108554928Y-101828338D01*
X108554925Y-101828334D01*
X108554925Y-101828335D01*
X108547858Y-101821268D01*
X108547858Y-101821267D01*
X108469468Y-101742877D01*
X108435984Y-101681553D01*
X108440968Y-101611862D01*
X108482840Y-101555928D01*
X108484144Y-101554966D01*
X108551218Y-101506235D01*
X108562205Y-101494032D01*
X108621690Y-101457383D01*
X108691547Y-101458712D01*
G37*
%TD.AperFunction*%
%TA.AperFunction,Conductor*%
G36*
X107021641Y-100995185D02*
G01*
X107067396Y-101047989D01*
X107072533Y-101061182D01*
X107118165Y-101201624D01*
X107118168Y-101201631D01*
X107212814Y-101365563D01*
X107226797Y-101381093D01*
X107232592Y-101387529D01*
X107262821Y-101450520D01*
X107254195Y-101519856D01*
X107209453Y-101573521D01*
X107142801Y-101594478D01*
X107140441Y-101594500D01*
X106024368Y-101594500D01*
X106000177Y-101592117D01*
X105972029Y-101586518D01*
X105911610Y-101574500D01*
X105911607Y-101574500D01*
X105911606Y-101574500D01*
X104368773Y-101574500D01*
X104301734Y-101554815D01*
X104255979Y-101502011D01*
X104244776Y-101451362D01*
X104244074Y-101350362D01*
X104263292Y-101283187D01*
X104315777Y-101237066D01*
X104368071Y-101225500D01*
X106191302Y-101225500D01*
X106251724Y-101213481D01*
X106312147Y-101201463D01*
X106312150Y-101201461D01*
X106312153Y-101201461D01*
X106345482Y-101187654D01*
X106345481Y-101187654D01*
X106345487Y-101187652D01*
X106425981Y-101154312D01*
X106477204Y-101120084D01*
X106528428Y-101085858D01*
X106602468Y-101011817D01*
X106663789Y-100978334D01*
X106690148Y-100975500D01*
X106954602Y-100975500D01*
X107021641Y-100995185D01*
G37*
%TD.AperFunction*%
%TA.AperFunction,Conductor*%
G36*
X104950572Y-98845185D02*
G01*
X104996327Y-98897989D01*
X105006271Y-98967147D01*
X104977246Y-99030703D01*
X104956419Y-99049817D01*
X104953264Y-99052109D01*
X104953261Y-99052111D01*
X104826598Y-99192785D01*
X104731953Y-99356715D01*
X104731950Y-99356722D01*
X104676238Y-99528188D01*
X104673458Y-99536744D01*
X104667971Y-99588951D01*
X104657061Y-99692750D01*
X104630476Y-99757365D01*
X104573178Y-99797349D01*
X104503359Y-99800009D01*
X104446059Y-99767469D01*
X104267541Y-99588951D01*
X104234056Y-99527628D01*
X104231225Y-99502137D01*
X104227949Y-99030703D01*
X104227391Y-98950362D01*
X104246609Y-98883187D01*
X104299094Y-98837066D01*
X104351388Y-98825500D01*
X104883533Y-98825500D01*
X104950572Y-98845185D01*
G37*
%TD.AperFunction*%
%TA.AperFunction,Conductor*%
G36*
X107481587Y-98845185D02*
G01*
X107502229Y-98861819D01*
X107551229Y-98910819D01*
X107584714Y-98972142D01*
X107579730Y-99041834D01*
X107537858Y-99097767D01*
X107472394Y-99122184D01*
X107463548Y-99122500D01*
X106283589Y-99122500D01*
X106216550Y-99102815D01*
X106191439Y-99081472D01*
X106165002Y-99052111D01*
X106164998Y-99052107D01*
X106161848Y-99049819D01*
X106160465Y-99048025D01*
X106160169Y-99047759D01*
X106160217Y-99047704D01*
X106119181Y-98994489D01*
X106113202Y-98924876D01*
X106145807Y-98863081D01*
X106206645Y-98828723D01*
X106234732Y-98825500D01*
X107414548Y-98825500D01*
X107481587Y-98845185D01*
G37*
%TD.AperFunction*%
%TD*%
D21*
X110744000Y-104902000D03*
X110744000Y-102870000D03*
X105559132Y-99725000D03*
X109728000Y-102616000D03*
X106680000Y-101075000D03*
X106934000Y-99023000D03*
X130810000Y-89408000D03*
X123952000Y-89408000D03*
X114808000Y-92202000D03*
X107945347Y-100833347D03*
X105918000Y-105918000D03*
X105918000Y-93726000D03*
X113792000Y-96012000D03*
X113792000Y-97282000D03*
X113792000Y-98552000D03*
X113792000Y-100330000D03*
X113792000Y-101600000D03*
X113792000Y-102870000D03*
X113792000Y-104140000D03*
X126852000Y-97300000D03*
X129682000Y-94200000D03*
X129777000Y-96135000D03*
X126662000Y-99860000D03*
X130042000Y-98920000D03*
X126692000Y-102520000D03*
X130182000Y-101450000D03*
X126882000Y-105390000D03*
X113792000Y-94742000D03*
X113792000Y-93472000D03*
X110850000Y-87500000D03*
X111333274Y-86333274D03*
X111333274Y-88666726D03*
X112500000Y-85850000D03*
X112500000Y-87500000D03*
X112500000Y-89150000D03*
X113666726Y-86333274D03*
X113666726Y-88666726D03*
X114150000Y-87500000D03*
X110850000Y-112500000D03*
X111333274Y-111333274D03*
X111333274Y-113666726D03*
X112500000Y-110850000D03*
X112500000Y-112500000D03*
X112500000Y-114150000D03*
X113666726Y-111333274D03*
X113666726Y-113666726D03*
X114150000Y-112500000D03*
M02*
