%TF.GenerationSoftware,KiCad,Pcbnew,8.0.1*%
%TF.CreationDate,2024-08-04T19:12:34+01:00*%
%TF.ProjectId,hexpansion,68657870-616e-4736-996f-6e2e6b696361,rev?*%
%TF.SameCoordinates,Original*%
%TF.FileFunction,Legend,Bot*%
%TF.FilePolarity,Positive*%
%FSLAX46Y46*%
G04 Gerber Fmt 4.6, Leading zero omitted, Abs format (unit mm)*
G04 Created by KiCad (PCBNEW 8.0.1) date 2024-08-04 19:12:34*
%MOMM*%
%LPD*%
G01*
G04 APERTURE LIST*
%ADD10C,0.250000*%
%ADD11C,0.200000*%
%ADD12C,0.350000*%
G04 APERTURE END LIST*
D10*
X103290809Y-96435901D02*
X103338428Y-96578758D01*
X103338428Y-96578758D02*
X103386047Y-96626377D01*
X103386047Y-96626377D02*
X103481285Y-96673996D01*
X103481285Y-96673996D02*
X103624142Y-96673996D01*
X103624142Y-96673996D02*
X103719380Y-96626377D01*
X103719380Y-96626377D02*
X103767000Y-96578758D01*
X103767000Y-96578758D02*
X103814619Y-96483520D01*
X103814619Y-96483520D02*
X103814619Y-96102568D01*
X103814619Y-96102568D02*
X102814619Y-96102568D01*
X102814619Y-96102568D02*
X102814619Y-96435901D01*
X102814619Y-96435901D02*
X102862238Y-96531139D01*
X102862238Y-96531139D02*
X102909857Y-96578758D01*
X102909857Y-96578758D02*
X103005095Y-96626377D01*
X103005095Y-96626377D02*
X103100333Y-96626377D01*
X103100333Y-96626377D02*
X103195571Y-96578758D01*
X103195571Y-96578758D02*
X103243190Y-96531139D01*
X103243190Y-96531139D02*
X103290809Y-96435901D01*
X103290809Y-96435901D02*
X103290809Y-96102568D01*
X102814619Y-97293044D02*
X102814619Y-97483520D01*
X102814619Y-97483520D02*
X102862238Y-97578758D01*
X102862238Y-97578758D02*
X102957476Y-97673996D01*
X102957476Y-97673996D02*
X103147952Y-97721615D01*
X103147952Y-97721615D02*
X103481285Y-97721615D01*
X103481285Y-97721615D02*
X103671761Y-97673996D01*
X103671761Y-97673996D02*
X103767000Y-97578758D01*
X103767000Y-97578758D02*
X103814619Y-97483520D01*
X103814619Y-97483520D02*
X103814619Y-97293044D01*
X103814619Y-97293044D02*
X103767000Y-97197806D01*
X103767000Y-97197806D02*
X103671761Y-97102568D01*
X103671761Y-97102568D02*
X103481285Y-97054949D01*
X103481285Y-97054949D02*
X103147952Y-97054949D01*
X103147952Y-97054949D02*
X102957476Y-97102568D01*
X102957476Y-97102568D02*
X102862238Y-97197806D01*
X102862238Y-97197806D02*
X102814619Y-97293044D01*
X102814619Y-98007330D02*
X102814619Y-98578758D01*
X103814619Y-98293044D02*
X102814619Y-98293044D01*
X102814619Y-98769235D02*
X102814619Y-99340663D01*
X103814619Y-99054949D02*
X102814619Y-99054949D01*
X102814619Y-99864473D02*
X102814619Y-100054949D01*
X102814619Y-100054949D02*
X102862238Y-100150187D01*
X102862238Y-100150187D02*
X102957476Y-100245425D01*
X102957476Y-100245425D02*
X103147952Y-100293044D01*
X103147952Y-100293044D02*
X103481285Y-100293044D01*
X103481285Y-100293044D02*
X103671761Y-100245425D01*
X103671761Y-100245425D02*
X103767000Y-100150187D01*
X103767000Y-100150187D02*
X103814619Y-100054949D01*
X103814619Y-100054949D02*
X103814619Y-99864473D01*
X103814619Y-99864473D02*
X103767000Y-99769235D01*
X103767000Y-99769235D02*
X103671761Y-99673997D01*
X103671761Y-99673997D02*
X103481285Y-99626378D01*
X103481285Y-99626378D02*
X103147952Y-99626378D01*
X103147952Y-99626378D02*
X102957476Y-99673997D01*
X102957476Y-99673997D02*
X102862238Y-99769235D01*
X102862238Y-99769235D02*
X102814619Y-99864473D01*
X103814619Y-100721616D02*
X102814619Y-100721616D01*
X102814619Y-100721616D02*
X103528904Y-101054949D01*
X103528904Y-101054949D02*
X102814619Y-101388282D01*
X102814619Y-101388282D02*
X103814619Y-101388282D01*
X103719380Y-101864473D02*
X103767000Y-101912092D01*
X103767000Y-101912092D02*
X103814619Y-101864473D01*
X103814619Y-101864473D02*
X103767000Y-101816854D01*
X103767000Y-101816854D02*
X103719380Y-101864473D01*
X103719380Y-101864473D02*
X103814619Y-101864473D01*
X103433666Y-101864473D02*
X102862238Y-101816854D01*
X102862238Y-101816854D02*
X102814619Y-101864473D01*
X102814619Y-101864473D02*
X102862238Y-101912092D01*
X102862238Y-101912092D02*
X103433666Y-101864473D01*
X103433666Y-101864473D02*
X102814619Y-101864473D01*
D11*
X103341695Y-103791101D02*
X103341695Y-103333958D01*
X103341695Y-103562530D02*
X102541695Y-103562530D01*
X102541695Y-103562530D02*
X102655980Y-103486339D01*
X102655980Y-103486339D02*
X102732171Y-103410149D01*
X102732171Y-103410149D02*
X102770266Y-103333958D01*
D12*
X110850000Y-87500000D03*
X111333274Y-86333274D03*
X111333274Y-88666726D03*
X112500000Y-85850000D03*
X112500000Y-87500000D03*
X112500000Y-89150000D03*
X113666726Y-86333274D03*
X113666726Y-88666726D03*
X114150000Y-87500000D03*
X110850000Y-112500000D03*
X111333274Y-111333274D03*
X111333274Y-113666726D03*
X112500000Y-110850000D03*
X112500000Y-112500000D03*
X112500000Y-114150000D03*
X113666726Y-111333274D03*
X113666726Y-113666726D03*
X114150000Y-112500000D03*
M02*
