M48
METRIC,TZ
T1C0.400
T2C0.400
T3C2.200
%
G90
G05
T1
X105559Y-99725
X105918Y-93726
X105918Y-105918
X106680Y-101075
X106934Y-99023
X107945Y-100833
X109728Y-102616
X110744Y-102870
X110744Y-104902
X113792Y-93472
X113792Y-94742
X113792Y-96012
X113792Y-97282
X113792Y-98552
X113792Y-100330
X113792Y-101600
X113792Y-102870
X113792Y-104140
X114808Y-92202
X123952Y-89408
X126662Y-99860
X126692Y-102520
X126852Y-97300
X126882Y-105390
X129682Y-94200
X129777Y-96135
X130042Y-98920
X130182Y-101450
X130810Y-89408
T2
X110850Y-87500
X110850Y-112500
X111333Y-86333
X111333Y-88667
X111333Y-111333
X111333Y-113667
X112500Y-85850
X112500Y-89150
X112500Y-110850
X112500Y-114150
X113667Y-86333
X113667Y-88667
X113667Y-111333
X113667Y-113667
X114150Y-87500
X114150Y-112500
T3
X112500Y-87500
X112500Y-112500
M30
