M48
; DRILL file {KiCad 8.0.1} date 2024-08-04T19:12:34+0100
; FORMAT={-:-/ absolute / metric / decimal}
; #@! TF.CreationDate,2024-08-04T19:12:34+01:00
; #@! TF.GenerationSoftware,Kicad,Pcbnew,8.0.1
; #@! TF.FileFunction,MixedPlating,1,2
FMAT,2
METRIC
; #@! TA.AperFunction,Plated,PTH,ViaDrill
T1C0.400
; #@! TA.AperFunction,Plated,PTH,ComponentDrill
T2C0.400
; #@! TA.AperFunction,Plated,PTH,ComponentDrill
T3C2.200
%
G90
G05
T1
X105.559Y-99.725
X105.918Y-93.726
X105.918Y-105.918
X106.68Y-101.075
X106.934Y-99.023
X107.945Y-100.833
X109.728Y-102.616
X110.744Y-102.87
X110.744Y-104.902
X113.792Y-93.472
X113.792Y-94.742
X113.792Y-96.012
X113.792Y-97.282
X113.792Y-98.552
X113.792Y-100.33
X113.792Y-101.6
X113.792Y-102.87
X113.792Y-104.14
X114.808Y-92.202
X123.952Y-89.408
X126.662Y-99.86
X126.692Y-102.52
X126.852Y-97.3
X126.882Y-105.39
X129.682Y-94.2
X129.777Y-96.135
X130.042Y-98.92
X130.182Y-101.45
X130.81Y-89.408
T2
X110.85Y-87.5
X110.85Y-112.5
X111.333Y-86.333
X111.333Y-88.667
X111.333Y-111.333
X111.333Y-113.667
X112.5Y-85.85
X112.5Y-89.15
X112.5Y-110.85
X112.5Y-114.15
X113.667Y-86.333
X113.667Y-88.667
X113.667Y-111.333
X113.667Y-113.667
X114.15Y-87.5
X114.15Y-112.5
T3
X112.5Y-87.5
X112.5Y-112.5
M30
