%TF.GenerationSoftware,KiCad,Pcbnew,8.0.1*%
%TF.CreationDate,2024-08-04T19:12:34+01:00*%
%TF.ProjectId,hexpansion,68657870-616e-4736-996f-6e2e6b696361,rev?*%
%TF.SameCoordinates,Original*%
%TF.FileFunction,Soldermask,Top*%
%TF.FilePolarity,Negative*%
%FSLAX46Y46*%
G04 Gerber Fmt 4.6, Leading zero omitted, Abs format (unit mm)*
G04 Created by KiCad (PCBNEW 8.0.1) date 2024-08-04 19:12:34*
%MOMM*%
%LPD*%
G01*
G04 APERTURE LIST*
G04 Aperture macros list*
%AMRoundRect*
0 Rectangle with rounded corners*
0 $1 Rounding radius*
0 $2 $3 $4 $5 $6 $7 $8 $9 X,Y pos of 4 corners*
0 Add a 4 corners polygon primitive as box body*
4,1,4,$2,$3,$4,$5,$6,$7,$8,$9,$2,$3,0*
0 Add four circle primitives for the rounded corners*
1,1,$1+$1,$2,$3*
1,1,$1+$1,$4,$5*
1,1,$1+$1,$6,$7*
1,1,$1+$1,$8,$9*
0 Add four rect primitives between the rounded corners*
20,1,$1+$1,$2,$3,$4,$5,0*
20,1,$1+$1,$4,$5,$6,$7,0*
20,1,$1+$1,$6,$7,$8,$9,0*
20,1,$1+$1,$8,$9,$2,$3,0*%
%AMFreePoly0*
4,1,19,0.500000,-0.750000,0.000000,-0.750000,0.000000,-0.744911,-0.071157,-0.744911,-0.207708,-0.704816,-0.327430,-0.627875,-0.420627,-0.520320,-0.479746,-0.390866,-0.500000,-0.250000,-0.500000,0.250000,-0.479746,0.390866,-0.420627,0.520320,-0.327430,0.627875,-0.207708,0.704816,-0.071157,0.744911,0.000000,0.744911,0.000000,0.750000,0.500000,0.750000,0.500000,-0.750000,0.500000,-0.750000,
$1*%
%AMFreePoly1*
4,1,19,0.000000,0.744911,0.071157,0.744911,0.207708,0.704816,0.327430,0.627875,0.420627,0.520320,0.479746,0.390866,0.500000,0.250000,0.500000,-0.250000,0.479746,-0.390866,0.420627,-0.520320,0.327430,-0.627875,0.207708,-0.704816,0.071157,-0.744911,0.000000,-0.744911,0.000000,-0.750000,-0.500000,-0.750000,-0.500000,0.750000,0.000000,0.750000,0.000000,0.744911,0.000000,0.744911,
$1*%
G04 Aperture macros list end*
%ADD10C,1.000000*%
%ADD11RoundRect,0.150000X1.600000X0.150000X-1.600000X0.150000X-1.600000X-0.150000X1.600000X-0.150000X0*%
%ADD12RoundRect,0.150000X1.200000X0.150000X-1.200000X0.150000X-1.200000X-0.150000X1.200000X-0.150000X0*%
%ADD13R,0.550000X0.550000*%
%ADD14FreePoly0,270.000000*%
%ADD15FreePoly1,270.000000*%
%ADD16C,0.700000*%
%ADD17C,4.400000*%
G04 APERTURE END LIST*
D10*
%TO.C,3V3*%
X117094000Y-91440000D03*
%TD*%
%TO.C,HS_I1*%
X115824000Y-104267000D03*
%TD*%
D11*
%TO.C,J1*%
X100500000Y-96600000D03*
D12*
X100900000Y-97400000D03*
X100900000Y-98200000D03*
D11*
X100500000Y-99000000D03*
D12*
X100900000Y-99800000D03*
X100900000Y-100600000D03*
D11*
X100500000Y-101400000D03*
D12*
X100900000Y-102200000D03*
X100900000Y-103000000D03*
D11*
X100500000Y-103800000D03*
%TD*%
D10*
%TO.C,HS_F1*%
X117729000Y-100457000D03*
%TD*%
D13*
%TO.C,D1*%
X127902000Y-97085000D03*
X128852000Y-97085000D03*
X128852000Y-96135000D03*
X127902000Y-96135000D03*
%TD*%
D10*
%TO.C,LS_B1*%
X117729000Y-94742000D03*
%TD*%
%TO.C,LS_D1*%
X117729000Y-97282000D03*
%TD*%
D14*
%TO.C,DIN1*%
X128332004Y-90619996D03*
D15*
X128332006Y-91920000D03*
%TD*%
D10*
%TO.C,GND2*%
X117094000Y-106680000D03*
%TD*%
%TO.C,HS_H1*%
X117729000Y-102997000D03*
%TD*%
D13*
%TO.C,D4*%
X127902000Y-105410000D03*
X128852000Y-105410000D03*
X128852000Y-104460000D03*
X127902000Y-104460000D03*
%TD*%
D16*
%TO.C,H2*%
X110850000Y-87500000D03*
X111333274Y-86333274D03*
X111333274Y-88666726D03*
X112500000Y-85850000D03*
D17*
X112500000Y-87500000D03*
D16*
X112500000Y-89150000D03*
X113666726Y-86333274D03*
X113666726Y-88666726D03*
X114150000Y-87500000D03*
%TD*%
D14*
%TO.C,PWR1*%
X130922000Y-90620000D03*
D15*
X130922002Y-91920004D03*
%TD*%
D10*
%TO.C,LS_A1*%
X115824000Y-93472000D03*
%TD*%
%TO.C,LS_C1*%
X115824000Y-96012000D03*
%TD*%
D14*
%TO.C,JP1*%
X107695999Y-104759998D03*
D15*
X107696001Y-106060002D03*
%TD*%
D13*
%TO.C,D3*%
X127902000Y-102635000D03*
X128852000Y-102635000D03*
X128852000Y-101685000D03*
X127902000Y-101685000D03*
%TD*%
D10*
%TO.C,HS_G1*%
X115824000Y-101727000D03*
%TD*%
%TO.C,LS_E1*%
X115824000Y-98552000D03*
%TD*%
D14*
%TO.C,GND1*%
X125822000Y-90620000D03*
D15*
X125822002Y-91920004D03*
%TD*%
D16*
%TO.C,H1*%
X110850000Y-112500000D03*
X111333274Y-111333274D03*
X111333274Y-113666726D03*
X112500000Y-110850000D03*
D17*
X112500000Y-112500000D03*
D16*
X112500000Y-114150000D03*
X113666726Y-111333274D03*
X113666726Y-113666726D03*
X114150000Y-112500000D03*
%TD*%
D13*
%TO.C,D2*%
X127902000Y-99860000D03*
X128852000Y-99860000D03*
X128852000Y-98910000D03*
X127902000Y-98910000D03*
%TD*%
M02*
